<svg aria-hidden="true" style="position: absolute; width: 0; height: 0; overflow: hidden;" version="1.1" xmlns="http://www.w3.org/2000/svg" xmlns:xlink="http://www.w3.org/1999/xlink">
<defs>
<symbol id="arrow" viewBox="0 0 82 32">
<path d="M81.414 17.414c0.362-0.362 0.586-0.862 0.586-1.414s-0.224-1.052-0.586-1.414l-12.728-12.728c-0.364-0.377-0.874-0.611-1.439-0.611-1.105 0-2 0.895-2 2 0 0.565 0.234 1.074 0.61 1.438l0.001 0.001 11.314 11.314-11.314 11.314c-0.347 0.359-0.561 0.849-0.561 1.389 0 1.105 0.895 2 2 2 0.54 0 1.030-0.214 1.39-0.562l-0.001 0.001 12.728-12.728zM0 18h80v-4h-80v4z"></path>
</symbol>
<symbol id="bell" viewBox="0 0 32 32">
<path fill="#f8d24e" style="fill: var(--color2, #f8d24e)" d="M16 0c8.837 0 16 7.163 16 16s-7.163 16-16 16c-8.837 0-16-7.163-16-16s7.163-16 16-16z"></path>
<path fill="#131313" style="fill: var(--color3, #131313)" d="M14.688 4.874c-2.861 0.424-5.218 2.013-6.085 4.093-0.276 0.657-0.351 1.061-0.351 1.853 0.005 0.585 0.026 0.802 0.117 1.118 0.186 0.621 0.319 0.936 0.595 1.381l0.256 0.414-0.288 0.352c-2.271 2.826-2.521 6.8-0.627 9.931 0.707 1.175 1.862 2.329 2.989 3.002l0.335 0.196 9.175-0.077 0.218-0.119c0.761-0.429 1.835-1.387 2.436-2.163 0.87-1.13 1.486-2.5 1.737-3.993l0.007-0.053c0.085-0.533 0.085-2.112-0.005-2.614-0.271-1.547-0.851-2.872-1.766-4.047-0.175-0.223-0.314-0.409-0.314-0.424 0-0.010 0.096-0.171 0.207-0.352 0.26-0.414 0.495-0.947 0.622-1.412 0.143-0.518 0.143-1.811 0-2.329-0.511-1.837-2.042-3.369-4.207-4.212-0.607-0.238-1.644-0.492-2.314-0.574-0.622-0.072-2.159-0.058-2.739 0.031zM17.926 5.717c2.84 0.554 4.92 2.292 5.303 4.435 0.085 0.481 0.032 1.299-0.111 1.754-0.144 0.445-0.41 0.968-0.723 1.412-0.128 0.181-0.234 0.388-0.234 0.456s0.111 0.243 0.271 0.419c1.329 1.475 2.031 3.322 2.031 5.32-0.005 2.272-0.877 4.264-2.558 5.827-0.287 0.269-0.697 0.605-0.915 0.75l-0.399 0.269-8.792 0.036-0.34-0.218c-1.234-0.801-2.346-2.126-2.963-3.534-0.776-1.78-0.856-3.845-0.223-5.697 0.335-0.963 0.782-1.749 1.462-2.577 0.277-0.332 0.404-0.528 0.404-0.621 0-0.078-0.138-0.332-0.319-0.595-0.638-0.927-0.899-1.956-0.744-2.929 0.16-0.983 0.606-1.791 1.431-2.593 1.074-1.040 2.574-1.728 4.335-1.987 0.728-0.109 2.34-0.067 3.085 0.072z"></path>
<path fill="#131313" style="fill: var(--color3, #131313)" d="M14.927 6.628c-2.18 0.357-3.888 1.568-4.446 3.157-0.128 0.357-0.149 0.497-0.149 1.009s0.021 0.652 0.149 1.009c0.079 0.228 0.228 0.544 0.33 0.704 0.276 0.445 0.399 0.461 0.947 0.129 0.788-0.485 1.705-0.857 2.683-1.062l0.056-0.010c0.659-0.134 1.925-0.186 2.643-0.103 1.122 0.129 2.34 0.532 3.313 1.107 0.276 0.16 0.559 0.294 0.627 0.294 0.404 0 0.92-1.164 0.92-2.069 0-2.013-1.925-3.736-4.653-4.166-0.58-0.093-1.862-0.093-2.42 0zM17.56 7.456c0.915 0.196 1.755 0.57 2.388 1.061 0.851 0.657 1.308 1.573 1.233 2.458-0.026 0.352-0.159 0.828-0.239 0.88-0.022 0.010-0.32-0.114-0.66-0.279-0.667-0.327-1.443-0.6-2.254-0.779l-0.070-0.013c-0.495-0.103-0.702-0.119-1.808-0.114-1.091 0-1.319 0.016-1.792 0.114-0.819 0.176-1.458 0.394-2.245 0.766-0.792 0.378-0.75 0.383-0.893-0.083-0.186-0.605-0.069-1.407 0.292-2.013 0.192-0.321 0.718-0.854 1.101-1.117 0.729-0.502 1.367-0.73 2.739-0.979 0.282-0.051 1.846 0.021 2.207 0.099zM16.693 14.131c-0.149 0.187-0.149 0.363 0.005 0.513 0.101 0.099 0.202 0.124 0.57 0.15 0.745 0.054 1.428 0.274 2.027 0.623l-0.022-0.012c0.436 0.259 1.101 0.885 1.399 1.335 0.442 0.646 0.744 1.573 0.744 2.257 0 0.238 0.022 0.31 0.133 0.413 0.17 0.171 0.394 0.171 0.559 0 0.117-0.119 0.122-0.15 0.090-0.657-0.149-2.505-2.292-4.595-4.856-4.736l-0.532-0.031-0.116 0.145z"></path>
</symbol>
<symbol id="cow" viewBox="0 0 32 32">
<path fill="#f8d24e" style="fill: var(--color2, #f8d24e)" d="M16 0c8.837 0 16 7.163 16 16s-7.163 16-16 16c-8.837 0-16-7.163-16-16s7.163-16 16-16z"></path>
<path fill="#131313" style="fill: var(--color3, #131313)" d="M8.922 4.618c-0.188 0.163-0.725 1.283-0.918 1.894-0.229 0.757-0.307 1.325-0.276 2.109 0.042 1.12 0.323 1.97 0.943 2.857 0.162 0.233 0.292 0.433 0.292 0.449 0 0.011-0.099 0.022-0.224 0.022-0.538 0-1.544 0.179-2.315 0.411-1.225 0.369-1.944 1.012-1.944 1.732 0 0.255 0.229 0.687 0.474 0.909 0.474 0.428 1.512 0.834 2.627 1.028 0.386 0.070 1.533 0.189 1.788 0.195 0.047 0 0.063 0.25 0.063 1.066 0 0.703 0.026 1.25 0.078 1.585 0.188 1.201 0.771 2.472 1.542 3.371l0.266 0.308-0.177 0.287c-0.26 0.406-0.36 0.714-0.39 1.174-0.079 1.104 0.609 2.083 1.939 2.771 2.532 1.315 6.468 0.801 7.944-1.039 0.719-0.899 0.803-1.926 0.234-2.857l-0.177-0.287 0.318-0.384c0.595-0.714 0.98-1.428 1.272-2.332 0.244-0.768 0.339-1.51 0.339-2.684 0-0.535 0.015-0.979 0.042-0.979 0.24-0.005 1.392-0.13 1.757-0.195 1.121-0.195 2.138-0.595 2.627-1.028 0.245-0.222 0.474-0.655 0.474-0.909 0-0.801-0.813-1.45-2.325-1.84-0.495-0.13-1.428-0.287-1.882-0.314l-0.214-0.017 0.235-0.324c0.292-0.395 0.657-1.163 0.797-1.667 0.396-1.455 0.151-3.149-0.699-4.767-0.354-0.671-0.599-0.828-0.886-0.563-0.109 0.104-0.156 0.244-0.26 0.753-0.323 1.618-0.923 2.9-1.798 3.846l-0.386 0.422h-8.246l-0.344-0.373c-0.854-0.941-1.475-2.272-1.798-3.896-0.104-0.509-0.151-0.649-0.26-0.752-0.172-0.157-0.339-0.152-0.531 0.016zM9.588 7.827c0.276 0.605 0.621 1.174 1.027 1.699l0.323 0.417-0.339 0.254c-0.318 0.243-0.615 0.59-0.845 0.986l-0.099 0.178-0.25-0.34c-0.855-1.18-1.069-2.624-0.615-4.124 0.219-0.724 0.214-0.719 0.412-0.092 0.094 0.303 0.271 0.763 0.386 1.023zM23.156 6.685c0.189 0.524 0.298 1.129 0.298 1.76 0 0.022-0 0.045-0 0.067l0-0.003c0 0.984-0.26 1.818-0.808 2.564l-0.245 0.335-0.182-0.308c-0.236-0.4-0.542-0.733-0.903-0.994l-0.010-0.007c-0.141-0.092-0.25-0.184-0.25-0.195 0-0.016 0.099-0.141 0.224-0.276 0.579-0.644 1.199-1.802 1.507-2.797 0.093-0.308 0.188-0.563 0.203-0.563s0.094 0.19 0.166 0.417zM20.493 10.641c0.579 0.243 1.131 0.941 1.22 1.531 0.047 0.325 0.156 0.531 0.297 0.563 0.063 0.010 0.495 0.049 0.959 0.081 1.647 0.109 2.945 0.46 3.498 0.941 0.255 0.227 0.229 0.417-0.078 0.65-0.615 0.465-1.944 0.817-3.3 0.877-0.897 0.038-1.084 0.064-1.204 0.189-0.089 0.092-0.099 0.189-0.099 1.169 0 1.326-0.068 2.089-0.235 2.705-0.234 0.838-0.698 1.732-1.24 2.365l-0.224 0.26-0.464-0.276c-0.495-0.307-1.069-0.547-1.681-0.69l-0.039-0.008c-1.976-0.471-4.16-0.184-5.629 0.741l-0.339 0.216-0.214-0.254c-0.292-0.341-0.751-1.071-0.933-1.482-0.401-0.931-0.521-1.688-0.521-3.355 0-1.618 0.083-1.499-1.116-1.564-1.533-0.081-2.701-0.357-3.436-0.822-0.542-0.346-0.453-0.655 0.303-1.018 0.724-0.352 1.72-0.563 3.101-0.649 1.074-0.070 1.1-0.086 1.199-0.606 0.146-0.785 0.724-1.434 1.455-1.64 0.182-0.054 1.204-0.065 4.332-0.060l4.092 0.011 0.297 0.125zM17.564 21.841c1.277 0.314 2.231 0.898 2.643 1.623 0.099 0.168 0.141 0.34 0.161 0.606 0.021 0.33 0.006 0.411-0.12 0.682-0.579 1.229-2.705 2.040-4.868 1.856-2.601-0.216-4.311-1.667-3.638-3.090 0.365-0.768 1.6-1.504 2.903-1.72 0.214-0.032 0.428-0.070 0.469-0.081s0.511-0.011 1.043 0c0.724 0.017 1.073 0.049 1.407 0.125z"></path>
<path fill="#131313" style="fill: var(--color3, #131313)" d="M12.393 13.351c-0.323 0.109-0.542 0.25-0.834 0.541-0.256 0.243-0.276 0.53-0.063 0.703 0.198 0.162 0.386 0.141 0.625-0.070 0.303-0.265 0.538-0.374 0.829-0.374 0.292-0.005 0.516 0.098 0.829 0.374 0.239 0.211 0.427 0.232 0.625 0.070 0.104-0.087 0.136-0.157 0.136-0.32 0-0.167-0.036-0.243-0.219-0.427-0.516-0.519-1.283-0.719-1.929-0.498zM18.47 13.345c-0.333 0.125-0.761 0.406-0.932 0.617-0.167 0.206-0.173 0.438 0 0.612 0.172 0.184 0.38 0.173 0.63-0.033 0.615-0.509 1.074-0.525 1.642-0.054 0.146 0.125 0.312 0.222 0.365 0.222 0.255 0 0.464-0.227 0.464-0.498 0-0.173-0.433-0.573-0.824-0.763-0.433-0.211-0.948-0.249-1.345-0.102zM13.149 23.361c-0.151 0.146-0.204 0.356-0.125 0.525 0.058 0.135 0.146 0.189 0.506 0.287 0.162 0.043 0.23 0.097 0.287 0.232 0.073 0.179 0.078 0.179 0.48 0.195l0.401 0.017v-0.152c-0.005-0.216-0.125-0.53-0.282-0.746-0.182-0.25-0.5-0.412-0.86-0.444-0.245-0.021-0.307-0.011-0.406 0.087zM18.127 23.323c-0.26 0.070-0.636 0.422-0.74 0.698-0.052 0.145-0.087 0.313-0.099 0.487l-0 0.006c-0.010 0.232 0.010 0.287 0.136 0.4 0.307 0.271 0.714 0.060 0.714-0.373 0-0.211 0.156-0.357 0.433-0.411 0.292-0.054 0.396-0.173 0.401-0.449 0-0.363-0.323-0.503-0.845-0.357z"></path>
</symbol>
<symbol id="facebook" viewBox="0 0 32 32">
<path fill="#f8d24e" style="fill: var(--color2, #f8d24e)" d="M16 32c8.837 0 16-7.163 16-16s-7.163-16-16-16-16 7.163-16 16 7.163 16 16 16z"></path>
<path  d="M20.446 15.981h-2.611v9.619h-3.955v-9.619h-1.88v-3.379h1.88v-2.187c0-1.564 0.739-4.014 3.991-4.014l2.929 0.012v3.281h-2.125c-0.348 0-0.839 0.176-0.839 0.922v1.989h2.955l-0.345 3.377z"></path>
</symbol>
<symbol id="github" viewBox="0 0 32 32">
<path fill="#f8d24e" style="fill: var(--color2, #f8d24e)" d="M32 16c0 8.837-7.163 16-16 16s-16-7.163-16-16c0-8.837 7.163-16 16-16s16 7.163 16 16z"></path>
<path  d="M16 6.588c-5.17 0-9.412 4.242-9.412 9.412 0 4.411 3.096 8.419 7.206 9.412v-3.113c-0.408 0.088-0.781 0.091-1.196-0.031-0.556-0.164-1.008-0.535-1.344-1.099-0.214-0.36-0.593-0.753-0.988-0.724l-0.097-1.098c0.856-0.073 1.594 0.521 2.033 1.258 0.196 0.328 0.421 0.52 0.709 0.605 0.278 0.083 0.577 0.043 0.925-0.080 0.088-0.697 0.408-0.958 0.649-1.327-2.452-0.365-3.429-1.666-3.816-2.692-0.514-1.364-0.238-3.066 0.67-4.143 0.018-0.021 0.050-0.075 0.038-0.113-0.417-1.259 0.090-2.3 0.109-2.41 0.481 0.141 0.559-0.143 2.089 0.786l0.264 0.159c0.111 0.066 0.075 0.028 0.186 0.019 0.59-0.166 1.269-0.266 1.97-0.276l0.006-0c0.668 0.008 1.336 0.104 2.002 0.284l0.086 0.009c-0.008-0.002 0.024-0.006 0.075-0.037 1.911-1.158 1.842-0.779 2.355-0.946 0.019 0.111 0.519 1.169 0.106 2.411-0.056 0.171 1.656 1.739 0.708 4.256-0.388 1.026-1.365 2.328-3.816 2.693 0.314 0.48 0.692 0.734 0.69 1.722v3.886c4.109-0.993 7.206-5 7.206-9.412 0-5.17-4.242-9.412-9.412-9.412z"></path>
</symbol>
<symbol id="ice_cream" viewBox="0 0 32 32">
<path fill="#f8d24e" style="fill: var(--color2, #f8d24e)" d="M16 0c8.837 0 16 7.163 16 16s-7.163 16-16 16c-8.837 0-16-7.163-16-16s7.163-16 16-16z"></path>
<path fill="#000" style="fill: var(--color5, #000)" d="M16.078 4.557c0.058 0.155 0.173 0.902 0.173 1.133 0 0.002 0 0.005 0 0.008 0 0.589-0.229 1.124-0.603 1.522l0.001-0.001c-0.323 0.347-0.646 0.54-1.422 0.853-0.863 0.352-1.22 0.564-1.624 0.964-0.41 0.41-0.651 0.858-0.737 1.384-0.097 0.573 0 0.979 0.294 1.21l0.149 0.115-0.236 0.15c-0.477 0.314-1.344 1.051-1.494 1.277-0.289 0.434-0.26 0.838 0.067 1.003l0.154 0.077-0.173 0.164c-0.26 0.246-0.314 0.415-0.275 0.858 0.024 0.294 0.015 0.454-0.052 0.694-0.082 0.314-0.082 0.318 0.024 0.54 0.106 0.217 0.405 0.492 0.675 0.607 0.13 0.058 0.134 0.077 0.164 0.52 0.014 0.256 0.038 1.070 0.058 1.812 0.015 0.742 0.049 1.422 0.077 1.504 0.024 0.086 0.116 0.202 0.198 0.26 0.279 0.193 0.472 0.401 0.597 0.641 0.14 0.275 0.294 0.95 0.762 3.283l0.328 1.638 0.202 0.193c0.385 0.381 1.123 0.554 2.338 0.554 1.219 0 1.947-0.169 2.333-0.55l0.207-0.197 0.298-1.519c0.66-3.321 0.718-3.504 1.234-3.914 0.159-0.131 0.314-0.289 0.342-0.362 0.034-0.082 0.068-0.714 0.092-1.668 0.019-0.848 0.049-1.687 0.068-1.866l0.029-0.323 0.314-0.237c0.395-0.303 0.549-0.578 0.549-1.002-0.004-0.501-0.333-1.051-0.93-1.542l-0.285-0.231 0.14-0.198c0.583-0.804 0.217-1.918-0.868-2.66l-0.328-0.227 0.12-0.125c0.535-0.573 0.622-2.285 0.173-3.475-0.269-0.708-0.887-1.48-1.644-2.049-0.37-0.28-1.393-0.897-1.484-0.897-0.019 0-0.019 0.034-0.004 0.077zM17.466 6.24c0.256 0.251 0.564 0.593 0.685 0.766 0.718 1.003 0.901 2.261 0.467 3.187-0.173 0.376-0.694 0.934-1.176 1.267-0.737 0.511-2.396 1.37-3.552 1.841-1.86 0.757-2.941 0.902-3.066 0.405-0.049-0.188 0.092-0.337 0.685-0.733 0.534-0.366 2.935-2.15 2.979-2.222 0.014-0.019-0.232 0.092-0.54 0.246-1.046 0.531-1.542 0.429-1.518-0.308 0.014-0.535 0.4-1.142 0.934-1.489 0.136-0.086 0.555-0.28 0.941-0.434 1.267-0.511 1.653-0.771 2.082-1.412 0.256-0.381 0.535-1.085 0.554-1.384 0.005-0.106 0.024-0.188 0.038-0.188s0.232 0.207 0.486 0.458zM18.781 11.716c0.352 0.197 0.718 0.535 0.877 0.8 0.28 0.477 0.136 0.954-0.467 1.562-0.655 0.666-1.773 1.302-3.003 1.706-1.133 0.371-2.217 0.545-3.77 0.598l-0.964 0.034 0.627 0.038c0.81 0.053 2.376 0.005 2.983-0.092 1.615-0.256 2.989-0.767 3.972-1.47 0.222-0.159 0.453-0.289 0.516-0.289 0.159 0 0.853 0.666 0.993 0.945 0.077 0.159 0.097 0.275 0.082 0.429-0.072 0.641-0.853 0.984-2.737 1.21-2.304 0.275-5.316 0.005-6.604-0.588-0.608-0.28-0.708-0.439-0.554-0.863 0.048-0.135 0.058-0.294 0.038-0.521-0.024-0.299-0.019-0.337 0.086-0.448 0.241-0.26 0.646-0.41 2.131-0.786 0.52-0.134 1.229-0.347 1.566-0.472 0.819-0.299 2.357-1.075 3.070-1.552 0.67-0.444 0.767-0.463 1.157-0.241zM12.38 17.615c1.012 0.294 1.909 0.381 3.577 0.347 1.253-0.024 2.024-0.101 3.137-0.299 0.227-0.038 0.424-0.072 0.449-0.072 0.053 0 0.038 1.851-0.019 2.338-0.063 0.516-0.203 0.916-0.352 1.012-0.154 0.101-0.925 0.207-1.957 0.265-2.116 0.115-4.29 0-4.964-0.27-0.366-0.149-0.405-0.342-0.41-2.131 0-1.19 0.010-1.354 0.072-1.33 0.038 0.014 0.25 0.077 0.467 0.14zM13.523 21.713c0.348 0.044 0.723 0.086 0.838 0.101l0.208 0.024-0.184 0.202c-0.236 0.255-0.598 0.766-0.728 1.027-0.149 0.299-0.198 0.318-0.419 0.198l-0.188-0.106-0.106-0.655c-0.056-0.364-0.103-0.621-0.156-0.876l0.020 0.119c-0.044-0.125-0.087-0.125 0.713-0.033zM18.661 21.66c0 0.010-0.024 0.134-0.049 0.275-0.029 0.144-0.149 0.93-0.269 1.749-0.246 1.711-0.41 2.516-0.559 2.786-0.207 0.362-0.704 0.573-1.508 0.641-0.314 0.024-1.258-0.038-1.311-0.087-0.038-0.043 0.79-1.070 0.921-1.137 0.12-0.068 0.154-0.058 0.563 0.154 0.477 0.252 0.719 0.29 0.719 0.131s-0.125-0.314-0.434-0.525c-0.284-0.203-0.385-0.319-0.385-0.454 0-0.038 0.14-0.255 0.308-0.482s0.414-0.588 0.54-0.805l0.237-0.39 0.216 0.029c0.438 0.063 0.554 0.058 0.54-0.038-0.010-0.049-0.092-0.188-0.184-0.304-0.092-0.12-0.164-0.241-0.164-0.265 0-0.092 0.448-0.935 0.593-1.114 0.125-0.154 0.227-0.232 0.227-0.164zM15.649 22.045c0.241 0.159 1.147 0.945 1.204 1.041 0.024 0.044-0.906 1.499-1.089 1.706-0.019 0.024-0.12-0.024-0.221-0.101-0.225-0.169-0.498-0.359-0.777-0.541l-0.061-0.037-0.651-0.429 0.39-0.66c0.694-1.162 0.68-1.142 0.829-1.142 0.077 0 0.246 0.072 0.376 0.164zM17.475 22.218c-0.169 0.207-0.308 0.338-0.366 0.338-0.125 0-0.328-0.111-0.67-0.362l-0.285-0.207 0.57-0.034c0.251-0.009 0.479-0.025 0.706-0.047l-0.046 0.004c0.386-0.062 0.386-0.058 0.092 0.309zM13.831 24.537c0.444 0.173 1.196 0.583 1.412 0.767 0.154 0.125 0.154 0.134 0.092 0.289-0.102 0.203-0.201 0.371-0.31 0.533l0.011-0.017c-0.092 0.138-0.199 0.313-0.3 0.491l-0.023 0.044c-0.154 0.299-0.202 0.323-0.52 0.237-0.342-0.102-0.525-0.275-0.621-0.589-0.131-0.438-0.338-1.677-0.314-1.87 0.010-0.072 0.212-0.029 0.573 0.116z"></path>
</symbol>
<symbol id="telegram" viewBox="0 0 32 32">
<path fill="#f8d24e" style="fill: var(--color2, #f8d24e)" d="M32 16c0 8.837-7.163 16-16 16s-16-7.163-16-16c0-8.837 7.163-16 16-16s16 7.163 16 16z"></path>
<path  d="M12.867 18.376l-0.317 4.169c0.455 0 0.651-0.183 0.888-0.401l2.13-1.901 4.414 3.018c0.809 0.421 1.381 0.199 1.599-0.696l2.898-12.673c0.257-1.117-0.433-1.554-1.221-1.28l-17.033 6.086c-1.163 0.422-1.145 1.026-0.198 1.301l4.354 1.264 10.115-5.907c0.476-0.295 0.909-0.132 0.552 0.163l-8.182 6.856z"></path>
</symbol>
<symbol id="arrow-right" viewBox="0 0 32 32">
<path d="M8.51 3.254c-0.326 0.376-0.51 0.886-0.51 1.417s0.183 1.041 0.51 1.417l8.62 9.924-8.62 9.924c-0.317 0.378-0.493 0.884-0.489 1.41s0.187 1.029 0.51 1.4 0.76 0.583 1.216 0.587c0.457 0.005 0.896-0.198 1.225-0.563l9.851-11.341c0.326-0.376 0.51-0.886 0.51-1.417s-0.183-1.041-0.51-1.417l-9.851-11.341c-0.327-0.376-0.769-0.587-1.231-0.587s-0.905 0.211-1.231 0.587z"></path>
</symbol>
<symbol id="burger" viewBox="0 0 32 32">
<path fill="#fff" style="fill: var(--color1, #fff)" d="M26.733 14h-21.466c-0.7 0-1.267 0.425-1.267 0.95v0.1c0 0.525 0.567 0.95 1.267 0.95h21.466c0.7 0 1.267-0.425 1.267-0.95v-0.1c0-0.525-0.567-0.95-1.267-0.95zM26.733 20h-21.466c-0.7 0-1.267 0.425-1.267 0.95v0.1c0 0.525 0.567 0.95 1.267 0.95h21.466c0.7 0 1.267-0.425 1.267-0.95v-0.1c0-0.525-0.567-0.95-1.267-0.95zM26.733 8h-21.466c-0.7 0-1.267 0.425-1.267 0.95v0.1c0 0.525 0.567 0.95 1.267 0.95h21.466c0.7 0 1.267-0.425 1.267-0.95v-0.1c0-0.525-0.567-0.95-1.267-0.95z"></path>
</symbol>
<symbol id="close" viewBox="0 0 32 32">
<path d="M18.3,16L31.5,2.8c0.2-0.3,0.4-0.6,0.4-1c0-0.9-0.7-1.6-1.6-1.6c-0.4,0-0.8,0.1-1,0.4l0,0L16,13.7L2.8,0.5
	C2.6,0.2,2.1,0,1.7,0C0.8,0,0.1,0.7,0.1,1.6c0,0.5,0.2,0.9,0.5,1.2l0,0L13.8,16L0.6,29.2C0.2,29.5,0,29.9,0,30.4
	C0,31.3,0.7,32,1.6,32c0.5,0,0.9-0.2,1.2-0.6l0,0L16,18.2l13.2,13.2c0.3,0.2,0.6,0.4,1,0.4c0.9,0,1.6-0.7,1.6-1.6
	c0-0.4-0.1-0.8-0.4-1l0,0L18.3,16L18.3,16z"/>
</symbol>
<symbol id="logo" viewBox="0 0 34 32">
<path fill="#f8d24e" style="fill: var(--color2, #f8d24e)" d="M17.412 14.169c1.636-4.385-1.75-6.784-3.994-8.363-0.429-0.321-0.858-0.623-1.205-0.898-0.607-0.508-1.065-1.176-1.31-1.939l-0.008-0.030c-0.12-0.37-0.189-0.795-0.189-1.237 0-0.4 0.057-0.787 0.162-1.153l-0.007 0.029c0.010-0.036 0.016-0.078 0.016-0.12 0-0.133-0.057-0.253-0.149-0.336l-0-0c-0.082-0.075-0.193-0.122-0.314-0.122-0.057 0-0.111 0.010-0.162 0.029l0.003-0.001c-0.755 0.295-1.458 0.709-2.081 1.225-0.592 0.454-1.070 1.025-1.404 1.682l-0.013 0.028c-0.32 0.627-0.508 1.368-0.51 2.152v0.001c-0.424 0.332-0.791 0.711-1.1 1.133l-0.011 0.016c-0.515 0.687-0.824 1.553-0.824 2.492 0 0.070 0.002 0.141 0.005 0.21l-0-0.010c-0.671 0.609-1.183 1.381-1.475 2.254l-0.011 0.038c-0.165 0.489-0.26 1.052-0.26 1.637 0 0.382 0.041 0.755 0.118 1.114l-0.006-0.035c-0.273 0.164-0.485 0.411-0.602 0.704-0.064 0.157-0.102 0.339-0.102 0.529 0 0.14 0.020 0.275 0.058 0.402l-0.003-0.010c0.087 0.304 0.272 0.571 0.527 0.761s0.567 0.292 0.886 0.289h0.030v2.493c0 0.253 0.102 0.496 0.283 0.675s0.427 0.279 0.683 0.279h0.751l1.223 10.473c0.025 0.233 0.137 0.449 0.313 0.605 0.178 0.156 0.406 0.243 0.644 0.243h5.089c0.238-0.001 0.466-0.087 0.644-0.244s0.29-0.371 0.317-0.604l1.223-10.473h0.751c0.256 0 0.501-0.1 0.683-0.279s0.282-0.422 0.282-0.675v-2.493h0.031c0 0 0 0 0 0 0.403 0 0.768-0.162 1.034-0.424l-0 0c0.274-0.27 0.429-0.639 0.429-1.022 0-0.005 0-0.011 0-0.017 0-0.398-0.164-0.757-0.429-1.014l-0-0-0.013 0.005zM6.399 6.214c0.619 2.294 3.004 3.197 5.179 4.004 0.070 0.043 0.154 0.068 0.244 0.068 0.197 0 0.366-0.121 0.436-0.292l0.001-0.003c0.020-0.049 0.031-0.107 0.031-0.167 0-0.154-0.076-0.291-0.194-0.374l-0.001-0.001c-0.053-0.038-0.116-0.066-0.185-0.078l-0.003-0c-2.342-0.878-4.552-1.696-4.72-4.041-0.005-0.070-0.007-0.152-0.007-0.234 0-0.596 0.134-1.16 0.374-1.665l-0.010 0.023c0.284-0.6 0.694-1.099 1.199-1.48l0.010-0.007c0.307-0.254 0.65-0.49 1.012-0.694l0.035-0.018c-0.011 0.132-0.018 0.286-0.018 0.441s0.006 0.309 0.019 0.461l-0.001-0.020c0.050 0.672 0.235 1.327 0.547 1.927 0.324 0.616 0.748 1.135 1.255 1.556l0.008 0.007c0.356 0.301 0.798 0.61 1.287 0.941 1.129 0.801 2.411 1.696 3.226 2.908 0.509 0.718 0.814 1.612 0.814 2.576 0 0.623-0.127 1.217-0.357 1.756l0.011-0.029h-1.897c-3.908 0.001-8.4-1.068-9.289-4.061-0.083-0.28-0.131-0.602-0.131-0.936 0-0.338 0.049-0.664 0.141-0.972l-0.006 0.024c0.19-0.638 0.54-1.179 1.005-1.595l0.003-0.003-0.021-0.021zM9.917 20.669l1.433 1.416-1.433 1.417-1.433-1.425 1.433-1.408zM13.204 24.388l-1.185 1.17-1.433-1.417 1.433-1.412 1.244 1.225-0.060 0.432zM9.917 27.636l-1.434-1.417 1.433-1.417 1.433 1.417-1.433 1.417zM9.261 24.15l-1.433 1.417-1.193-1.179-0.051-0.424 1.244-1.225 1.433 1.412zM7.167 26.219l-0.287 0.284-0.073-0.645 0.36 0.361zM7.017 27.67l0.811-0.802 1.574 1.569c0.008 0.031 0.018 0.063 0.030 0.092h-2.317l-0.099-0.86zM12.011 26.868l0.811 0.801-0.098 0.848h-2.382l1.669-1.65zM12.955 26.504l-0.288-0.284 0.365-0.361-0.077 0.645zM13.384 22.797l-0.717-0.721 0.91-0.899-0.193 1.62zM12.006 21.432l-1.36-1.34h2.72l-1.36 1.34zM7.823 21.432l-1.359-1.34h2.72l-1.36 1.34zM12.457 30.49h-5.084c-0.016-0.002-0.028-0.014-0.030-0.030l-0-0-0.121-1.018h5.389l-0.116 1.018c-0.002 0.017-0.017 0.030-0.034 0.030-0 0-0 0-0 0v0h-0.004zM16.391 15.716h-1.493c-0.013-0.001-0.028-0.002-0.043-0.002-0.121 0-0.232 0.046-0.316 0.12l0-0c-0.094 0.085-0.153 0.207-0.153 0.343 0 0.067 0.014 0.131 0.040 0.189l-0.001-0.003c0.054 0.119 0.154 0.21 0.277 0.251l0.003 0.001c0.062 0.021 0.128 0.028 0.192 0.021h0.533v2.493c-0.002 0.017-0.017 0.030-0.034 0.030-0 0-0 0-0 0v0h-10.971c-0 0-0 0-0 0-0.017 0-0.032-0.013-0.034-0.030l-0-0v-2.493h8.499c0.12-0.012 0.225-0.067 0.301-0.149l0-0c0.076-0.082 0.123-0.192 0.123-0.313 0-0.241-0.186-0.439-0.423-0.458l-0.002-0h-9.439c-0.014 0.001-0.030 0.002-0.046 0.002-0.215 0-0.401-0.127-0.486-0.31l-0.001-0.003c-0.029-0.062-0.045-0.135-0.045-0.212 0-0.154 0.067-0.292 0.173-0.387l0-0c0.094-0.085 0.22-0.137 0.357-0.137 0.017 0 0.034 0.001 0.051 0.002l-0.002-0h0.974c0.12-0.012 0.225-0.067 0.301-0.149l0-0c0.075-0.082 0.121-0.191 0.121-0.311s-0.046-0.23-0.122-0.311l0 0c-0.076-0.083-0.182-0.138-0.3-0.149l-0.002-0h-0.858c-0.051-0.253-0.079-0.544-0.079-0.841 0-0.392 0.050-0.773 0.145-1.135l-0.007 0.031c0.174-0.671 0.477-1.255 0.883-1.751l-0.006 0.008c0.301 0.924 1.073 2.188 3.004 3.193 1.815 0.937 4.218 1.416 7.14 1.416h1.716c0.014-0.001 0.031-0.002 0.048-0.002 0.138 0 0.264 0.052 0.36 0.138l-0-0c0.106 0.096 0.173 0.235 0.174 0.389v0c0 0.154-0.067 0.292-0.173 0.388l-0 0c-0.094 0.085-0.22 0.137-0.357 0.137-0.017 0-0.035-0.001-0.052-0.002l0.002 0h0.031zM19.817 27.915l-0.343 0.526 0.007 0.005 0.336-0.531zM23.514 28.093l0.629-0.014-0.016-0.727-0.718 0.122 0.106 0.62zM23.557 30.027l0.16 0.609 0.48-0.127-0.011-0.496-0.629 0.014zM18.705 30.12l0.142-0.613h-0.004l-0.138 0.613zM16.31 29.051l0.407-0.479-0.001-0.001-0.405 0.48zM15.445 27.086l0.629 0.003v-0.003h-0.629zM15.746 25.71l-0.565-0.277v0.001l0.565 0.277zM17.675 24.065l0.223 0.587h0.003l-0.225-0.587zM23.853 23.905l0.627 0.049 0.041-0.531-0.517-0.128-0.151 0.61zM23.699 25.876l-0.117 0.619 0.69 0.13 0.055-0.7-0.627-0.049zM22.022 25.070c-0.944 0-1.737 0.1-2.317 0.356-0.297 0.13-0.567 0.314-0.764 0.574-0.187 0.245-0.299 0.556-0.299 0.893 0 0.006 0 0.011 0 0.017v-0.001h1.257c0-0.073 0.018-0.114 0.045-0.149 0.033-0.043 0.107-0.111 0.267-0.182 0.338-0.149 0.92-0.249 1.811-0.249v-1.259zM18.642 26.908c0 0.647 0.29 1.18 0.832 1.535l0.687-1.054c-0.187-0.122-0.261-0.26-0.261-0.481h-1.259zM19.482 28.447c0.513 0.325 1.191 0.448 1.951 0.448v-1.259c-0.656 0-1.055-0.111-1.279-0.252l-0.673 1.063zM21.433 28.895c0.747 0 1.476-0.060 2.187-0.181l-0.21-1.24c-0.64 0.109-1.299 0.164-1.977 0.164v1.257zM22.886 28.107l0.043 1.934 1.257-0.028-0.043-1.934-1.257 0.028zM23.398 29.419c-0.72 0.189-1.513 0.287-2.383 0.287v1.258c0.964 0 1.866-0.107 2.702-0.328l-0.32-1.216zM21.015 29.706c-0.889 0-1.607-0.070-2.168-0.199l-0.282 1.226c0.684 0.157 1.505 0.231 2.451 0.231v-1.258zM18.844 29.507c-0.601-0.135-1.034-0.277-1.323-0.419l-0.553 1.131c0.415 0.203 0.956 0.371 1.6 0.515l0.275-1.227zM17.521 29.088c-0.306-0.148-0.57-0.32-0.809-0.521l0.006 0.005-0.813 0.959c0.314 0.267 0.671 0.495 1.065 0.687l0.552-1.13zM16.718 28.571c-0.428-0.361-0.647-0.833-0.644-1.482l-1.258-0.006c-0.005 0.989 0.353 1.828 1.089 2.449l0.811-0.961zM16.074 27.086c0-0.423 0.083-0.785 0.237-1.099l-1.129-0.553c-0.247 0.505-0.366 1.060-0.366 1.653h1.258zM16.31 25.988c0.287-0.582 0.791-1.033 1.587-1.335l-0.446-1.175c-1.038 0.394-1.819 1.040-2.27 1.956l1.129 0.555zM17.9 24.651c0.836-0.321 1.771-0.486 2.808-0.486v-1.257c-1.173 0-2.261 0.186-3.259 0.57l0.451 1.174zM20.708 24.165c1.059 0 2.055 0.118 2.994 0.35l0.302-1.22c-0.969-0.246-2.082-0.387-3.228-0.387-0.024 0-0.048 0-0.072 0h0.004v1.257zM23.226 23.856l-0.154 1.972 1.254 0.097 0.154-1.971-1.254-0.098zM23.816 25.259c-0.654-0.124-1.253-0.19-1.793-0.19v1.259c0.442 0 0.961 0.053 1.559 0.166l0.235-1.235zM29.953 26.263l-0.004 0.629 0.639 0.004-0.007-0.639-0.628 0.007zM29.683 25.446l-0.428 0.461 0.006 0.005 0.422-0.466zM28.116 25.508l0.436 0.454 0.004-0.004-0.44-0.449zM27.735 26.251l-0.621-0.102-0.119 0.727 0.737 0.004 0.004-0.629zM32.36 29.604l0.38 0.501 0.226-0.171 0.021-0.283-0.627-0.047zM31.002 30.108l-0.135-0.614-0.004 0.001 0.139 0.614zM26.286 29.936l-0.215 0.591 0.005 0.002 0.21-0.593zM25.211 29.365l-0.39 0.493 0.008 0.006 0.383-0.498zM24.493 28.462l-0.564 0.279 0.001 0.003 0.562-0.282zM25.23 24.648v0zM30.978 23.966l0.252-0.576-0.006-0.003-0.245 0.579zM32.422 25.293l-0.566 0.275 0.001 0.004 0.565-0.279zM32.667 26.392l0.627 0.046 0.001-0.023v-0.023h-0.629zM32.593 27.405l-0.003 0.629 0.587 0.003 0.043-0.586-0.627-0.046zM27.612 27.381l0.004-0.629-0.821-0.004 0.209 0.794 0.608-0.161zM28.325 28.259l-0.309 0.548 0.002 0.001 0.307-0.549zM32.145 28.044v-0.629h-0.126l-0.116 0.048 0.242 0.58zM32.476 28.044l0.627 0.047 0.050-0.676h-0.678v0.629zM30.581 26.256c-0.005-0.455-0.11-0.943-0.476-1.276l-0.846 0.932c-0.007-0.007 0.007 0.001 0.026 0.055 0.018 0.058 0.037 0.154 0.038 0.302l1.258-0.014zM30.11 24.986c-0.33-0.306-0.763-0.407-1.189-0.407v1.257c0.245 0 0.32 0.059 0.334 0.071l0.855-0.921zM28.921 24.578c-0.469 0-0.904 0.146-1.244 0.48l0.88 0.899c0.069-0.068 0.17-0.121 0.365-0.121v-1.259zM27.681 25.055c-0.295 0.284-0.499 0.661-0.565 1.084l-0.001 0.011 1.241 0.204c0.020-0.155 0.092-0.29 0.196-0.391l0-0-0.871-0.908zM27.732 26.88l2.217 0.012 0.007-1.258-2.217-0.012-0.007 1.258zM31.98 29.103c-0.138 0.105-0.474 0.25-1.113 0.391l0.27 1.228c0.664-0.146 1.232-0.336 1.602-0.617l-0.759-1.003zM30.864 29.494c-0.609 0.138-1.195 0.206-1.759 0.206v1.257c0.664 0 1.344-0.080 2.037-0.237l-0.277-1.227zM29.105 29.7c-0.593 0-1.081-0.028-1.47-0.081l-0.168 1.247c0.462 0.063 1.010 0.092 1.638 0.092v-1.259zM27.635 29.619c-0.428-0.059-0.813-0.156-1.18-0.289l0.040 0.013-0.419 1.186c0.399 0.147 0.869 0.265 1.354 0.333l0.037 0.004 0.168-1.247zM26.5 29.345c-0.346-0.122-0.646-0.284-0.915-0.486l0.009 0.006-0.765 0.998c0.358 0.274 0.775 0.494 1.243 0.663l0.429-1.182zM25.601 28.871c-0.228-0.186-0.412-0.416-0.541-0.679l-0.005-0.012-1.125 0.562c0.219 0.443 0.519 0.815 0.884 1.11l0.006 0.005 0.781-0.986zM25.056 28.183c-0.132-0.267-0.211-0.612-0.211-1.054h-1.257c0 0.59 0.105 1.134 0.341 1.611l1.127-0.558zM24.845 27.129c0-0.442 0.080-0.833 0.231-1.18l-1.154-0.501c-0.211 0.484-0.334 1.047-0.334 1.639 0 0.015 0 0.029 0 0.044l-0-0.002h1.258zM25.076 25.948c0.159-0.366 0.353-0.636 0.572-0.831l-0.837-0.94c-0.378 0.336-0.671 0.767-0.889 1.269l1.153 0.501zM25.648 25.117c0.676-0.602 1.707-0.952 3.193-0.952v-1.257c-1.668 0-3.044 0.391-4.030 1.271l0.837 0.939zM28.841 24.165c0.666 0 1.295 0.127 1.892 0.38l0.491-1.158c-0.696-0.303-1.507-0.479-2.359-0.479-0.008 0-0.016 0-0.024 0h0.001v1.257zM30.726 24.543c0.557 0.243 0.917 0.587 1.129 1.025l1.131-0.55c-0.36-0.741-0.962-1.281-1.756-1.628l-0.503 1.153zM31.857 25.572c0.118 0.238 0.181 0.508 0.181 0.821h1.257c0-0.489-0.1-0.953-0.311-1.378l-1.128 0.557zM32.040 26.347l-0.074 1.013 1.254 0.091 0.074-1.013-1.254-0.091zM32.597 26.777l-4.981-0.025-0.006 1.258 4.981 0.024 0.006-1.258zM27.004 27.541c0.147 0.558 0.506 0.98 1.011 1.266l0.619-1.095c-0.249-0.141-0.364-0.304-0.414-0.491l-1.216 0.32zM28.018 28.808c0.511 0.285 1.148 0.4 1.861 0.4v-1.258c-0.597 0-0.996-0.099-1.247-0.24l-0.614 1.098zM29.879 29.207c0.765 0 1.605-0.207 2.508-0.583l-0.484-1.161c-0.809 0.336-1.479 0.486-2.025 0.486v1.258zM32.145 28.673h0.331v-1.257h-0.331v1.257zM31.849 27.997l-0.117 1.56 1.254 0.094 0.117-1.56-1.254-0.094z"></path>
</symbol>
<symbol id="balloons_tab" viewBox="0 0 356 32">
<path fill="#f8d24e" style="fill: var(--color1, #f8d24e)" d="M306.022 29.57c0 1.021-0.832 1.849-1.857 1.849s-1.857-0.828-1.857-1.849c0-1.021 0.832-1.849 1.857-1.849s1.857 0.828 1.857 1.849z"></path>
<path fill="#f8d24e" style="fill: var(--color1, #f8d24e)" d="M309.737 27.258c0 1.021-0.832 1.849-1.857 1.849s-1.857-0.828-1.857-1.849c0-1.021 0.832-1.849 1.857-1.849s1.857 0.828 1.857 1.849z"></path>
<path fill="#f8d24e" style="fill: var(--color1, #f8d24e)" d="M314.38 24.485c0 1.021-0.832 1.849-1.857 1.849s-1.857-0.828-1.857-1.849c0-1.021 0.832-1.849 1.857-1.849s1.857 0.828 1.857 1.849z"></path>
<path fill="#f8d24e" style="fill: var(--color1, #f8d24e)" d="M318.095 22.173c0 1.021-0.832 1.849-1.857 1.849s-1.857-0.828-1.857-1.849c0-1.021 0.832-1.849 1.857-1.849s1.857 0.828 1.857 1.849z"></path>
<path fill="#f8d24e" style="fill: var(--color1, #f8d24e)" d="M315.773 28.646c0 1.021-0.832 1.849-1.857 1.849s-1.857-0.828-1.857-1.849c0-1.021 0.832-1.849 1.857-1.849s1.857 0.828 1.857 1.849z"></path>
<path fill="#f8d24e" style="fill: var(--color1, #f8d24e)" d="M319.488 26.334c0 1.021-0.832 1.849-1.857 1.849s-1.857-0.828-1.857-1.849c0-1.021 0.832-1.849 1.857-1.849s1.857 0.828 1.857 1.849z"></path>
<path fill="#f8d24e" style="fill: var(--color1, #f8d24e)" d="M324.132 23.56c0 1.021-0.832 1.849-1.857 1.849s-1.857-0.828-1.857-1.849c0-1.021 0.832-1.849 1.857-1.849s1.857 0.828 1.857 1.849z"></path>
<path fill="#f8d24e" style="fill: var(--color1, #f8d24e)" d="M327.847 21.248c0 1.021-0.832 1.849-1.857 1.849s-1.857-0.828-1.857-1.849c0-1.021 0.832-1.849 1.857-1.849s1.857 0.828 1.857 1.849z"></path>
<path fill="#f8d24e" style="fill: var(--color1, #f8d24e)" d="M324.132 27.721c0 1.021-0.832 1.849-1.857 1.849s-1.857-0.828-1.857-1.849c0-1.021 0.832-1.849 1.857-1.849s1.857 0.828 1.857 1.849z"></path>
<path fill="#f8d24e" style="fill: var(--color1, #f8d24e)" d="M327.847 25.409c0 1.021-0.832 1.849-1.857 1.849s-1.857-0.828-1.857-1.849c0-1.021 0.832-1.849 1.857-1.849s1.857 0.828 1.857 1.849z"></path>
<path fill="#f8d24e" style="fill: var(--color1, #f8d24e)" d="M332.491 22.635c0 1.021-0.832 1.849-1.857 1.849s-1.857-0.828-1.857-1.849c0-1.021 0.832-1.849 1.857-1.849s1.857 0.828 1.857 1.849z"></path>
<path fill="#f8d24e" style="fill: var(--color1, #f8d24e)" d="M336.206 20.323c0 1.021-0.832 1.849-1.857 1.849s-1.857-0.828-1.857-1.849c0-1.021 0.832-1.849 1.857-1.849s1.857 0.828 1.857 1.849z"></path>
<path fill="#f8d24e" style="fill: var(--color1, #f8d24e)" d="M332.491 26.334c0 1.021-0.832 1.849-1.857 1.849s-1.857-0.828-1.857-1.849c0-1.021 0.832-1.849 1.857-1.849s1.857 0.828 1.857 1.849z"></path>
<path fill="#f8d24e" style="fill: var(--color1, #f8d24e)" d="M336.206 24.022c0 1.021-0.832 1.849-1.857 1.849s-1.857-0.828-1.857-1.849c0-1.021 0.832-1.849 1.857-1.849s1.857 0.828 1.857 1.849z"></path>
<path fill="#f8d24e" style="fill: var(--color1, #f8d24e)" d="M340.85 21.248c0 1.021-0.832 1.849-1.857 1.849s-1.857-0.828-1.857-1.849c0-1.021 0.832-1.849 1.857-1.849s1.857 0.828 1.857 1.849z"></path>
<path fill="#f8d24e" style="fill: var(--color1, #f8d24e)" d="M344.564 18.936c0 1.021-0.832 1.849-1.857 1.849s-1.857-0.828-1.857-1.849c0-1.021 0.832-1.849 1.857-1.849s1.857 0.828 1.857 1.849z"></path>
<path fill="#f8d24e" style="fill: var(--color1, #f8d24e)" d="M334.813 29.57c0 1.021-0.832 1.849-1.857 1.849s-1.857-0.828-1.857-1.849c0-1.021 0.832-1.849 1.857-1.849s1.857 0.828 1.857 1.849z"></path>
<path fill="#f8d24e" style="fill: var(--color1, #f8d24e)" d="M338.528 27.258c0 1.021-0.832 1.849-1.857 1.849s-1.857-0.828-1.857-1.849c0-1.021 0.832-1.849 1.857-1.849s1.857 0.828 1.857 1.849z"></path>
<path fill="#f8d24e" style="fill: var(--color1, #f8d24e)" d="M343.636 30.033c0 1.021-0.832 1.849-1.857 1.849s-1.857-0.828-1.857-1.849c0-1.021 0.832-1.849 1.857-1.849s1.857 0.828 1.857 1.849z"></path>
<path fill="#f8d24e" style="fill: var(--color1, #f8d24e)" d="M343.171 24.485c0 1.021-0.832 1.849-1.857 1.849s-1.857-0.828-1.857-1.849c0-1.021 0.832-1.849 1.857-1.849s1.857 0.828 1.857 1.849z"></path>
<path fill="#f8d24e" style="fill: var(--color1, #f8d24e)" d="M348.279 27.258c0 1.021-0.832 1.849-1.857 1.849s-1.857-0.828-1.857-1.849c0-1.021 0.832-1.849 1.857-1.849s1.857 0.828 1.857 1.849z"></path>
<path fill="#f8d24e" style="fill: var(--color1, #f8d24e)" d="M352.459 30.033c0 1.021-0.832 1.849-1.857 1.849s-1.857-0.828-1.857-1.849c0-1.021 0.832-1.849 1.857-1.849s1.857 0.828 1.857 1.849z"></path>
<path fill="#f8d24e" style="fill: var(--color1, #f8d24e)" d="M346.887 22.173c0 1.021-0.832 1.849-1.857 1.849s-1.857-0.828-1.857-1.849c0-1.021 0.832-1.849 1.857-1.849s1.857 0.828 1.857 1.849z"></path>
<path fill="#f8d24e" style="fill: var(--color1, #f8d24e)" d="M352.459 24.947c0 1.021-0.832 1.849-1.857 1.849s-1.857-0.828-1.857-1.849c0-1.021 0.832-1.849 1.857-1.849s1.857 0.828 1.857 1.849z"></path>
<path fill="#f8d24e" style="fill: var(--color1, #f8d24e)" d="M356.174 27.721c0 1.021-0.832 1.849-1.857 1.849s-1.857-0.828-1.857-1.849c0-1.021 0.832-1.849 1.857-1.849s1.857 0.828 1.857 1.849z"></path>
<path fill="#f8d24e" style="fill: var(--color1, #f8d24e)" d="M288.376 10.151c0 1.021-0.832 1.849-1.857 1.849s-1.857-0.828-1.857-1.849c0-1.021 0.832-1.849 1.857-1.849s1.857 0.828 1.857 1.849z"></path>
<path fill="#f8d24e" style="fill: var(--color1, #f8d24e)" d="M292.090 7.839c0 1.021-0.832 1.849-1.857 1.849s-1.857-0.828-1.857-1.849c0-1.021 0.832-1.849 1.857-1.849s1.857 0.828 1.857 1.849z"></path>
<path fill="#f8d24e" style="fill: var(--color1, #f8d24e)" d="M296.734 5.065c0 1.021-0.832 1.849-1.857 1.849s-1.857-0.828-1.857-1.849c0-1.021 0.832-1.849 1.857-1.849s1.857 0.828 1.857 1.849z"></path>
<path fill="#f8d24e" style="fill: var(--color1, #f8d24e)" d="M300.449 2.753c0 1.021-0.832 1.85-1.857 1.85s-1.857-0.828-1.857-1.849c0-1.021 0.832-1.849 1.857-1.849s1.857 0.828 1.857 1.849z"></path>
<path fill="#f8d24e" style="fill: var(--color1, #f8d24e)" d="M280.946 9.689c0 1.021-0.832 1.85-1.857 1.85s-1.857-0.828-1.857-1.849c0-1.021 0.832-1.849 1.857-1.849s1.857 0.828 1.857 1.849z"></path>
<path fill="#f8d24e" style="fill: var(--color1, #f8d24e)" d="M284.66 7.377c0 1.021-0.832 1.849-1.857 1.849s-1.857-0.828-1.857-1.849c0-1.021 0.832-1.849 1.857-1.849s1.857 0.828 1.857 1.849z"></path>
<path fill="#f8d24e" style="fill: var(--color1, #f8d24e)" d="M289.304 4.602c0 1.021-0.832 1.849-1.857 1.849s-1.857-0.828-1.857-1.849c0-1.021 0.832-1.849 1.857-1.849s1.857 0.828 1.857 1.849z"></path>
<path fill="#f8d24e" style="fill: var(--color1, #f8d24e)" d="M293.019 2.291c0 1.021-0.832 1.849-1.857 1.849s-1.857-0.828-1.857-1.849c0-1.021 0.832-1.849 1.857-1.849s1.857 0.828 1.857 1.849z"></path>
<path fill="#f8d24e" style="fill: var(--color1, #f8d24e)" d="M297.198 29.57c0 1.021-0.832 1.849-1.857 1.849s-1.857-0.828-1.857-1.849c0-1.021 0.832-1.849 1.857-1.849s1.857 0.828 1.857 1.849z"></path>
<path fill="#f8d24e" style="fill: var(--color1, #f8d24e)" d="M300.914 27.258c0 1.021-0.832 1.849-1.857 1.849s-1.857-0.828-1.857-1.849c0-1.021 0.832-1.849 1.857-1.849s1.857 0.828 1.857 1.849z"></path>
<path fill="#f8d24e" style="fill: var(--color1, #f8d24e)" d="M305.557 24.485c0 1.021-0.832 1.849-1.857 1.849s-1.857-0.828-1.857-1.849c0-1.021 0.832-1.849 1.857-1.849s1.857 0.828 1.857 1.849z"></path>
<path fill="#f8d24e" style="fill: var(--color1, #f8d24e)" d="M309.272 22.173c0 1.021-0.832 1.849-1.857 1.849s-1.857-0.828-1.857-1.849c0-1.021 0.832-1.849 1.857-1.849s1.857 0.828 1.857 1.849z"></path>
<path fill="#f8d24e" style="fill: var(--color1, #f8d24e)" d="M292.555 28.183c0 1.021-0.832 1.849-1.857 1.849s-1.857-0.828-1.857-1.849c0-1.021 0.832-1.849 1.857-1.849s1.857 0.828 1.857 1.849z"></path>
<path fill="#f8d24e" style="fill: var(--color1, #f8d24e)" d="M296.269 25.871c0 1.021-0.832 1.849-1.857 1.849s-1.857-0.828-1.857-1.849c0-1.021 0.832-1.849 1.857-1.849s1.857 0.828 1.857 1.849z"></path>
<path fill="#f8d24e" style="fill: var(--color1, #f8d24e)" d="M300.914 23.098c0 1.021-0.832 1.849-1.857 1.849s-1.857-0.828-1.857-1.849c0-1.021 0.832-1.849 1.857-1.849s1.857 0.828 1.857 1.849z"></path>
<path fill="#f8d24e" style="fill: var(--color1, #f8d24e)" d="M304.628 20.786c0 1.021-0.832 1.849-1.857 1.849s-1.857-0.828-1.857-1.849c0-1.021 0.832-1.849 1.857-1.849s1.857 0.828 1.857 1.849z"></path>
<path fill="#f8d24e" style="fill: var(--color1, #f8d24e)" d="M294.413 21.71c0 1.021-0.832 1.849-1.857 1.849s-1.857-0.828-1.857-1.849c0-1.021 0.832-1.849 1.857-1.849s1.857 0.828 1.857 1.849z"></path>
<path fill="#f8d24e" style="fill: var(--color1, #f8d24e)" d="M298.127 19.398c0 1.021-0.832 1.849-1.857 1.849s-1.857-0.828-1.857-1.849c0-1.021 0.832-1.849 1.857-1.849s1.857 0.828 1.857 1.849z"></path>
<path fill="#f8d24e" style="fill: var(--color1, #f8d24e)" d="M302.771 16.624c0 1.021-0.832 1.849-1.857 1.849s-1.857-0.828-1.857-1.849c0-1.021 0.832-1.849 1.857-1.849s1.857 0.828 1.857 1.849z"></path>
<path fill="#f8d24e" style="fill: var(--color1, #f8d24e)" d="M306.486 14.312c0 1.021-0.832 1.849-1.857 1.849s-1.857-0.828-1.857-1.849c0-1.021 0.832-1.849 1.857-1.849s1.857 0.828 1.857 1.849z"></path>
<path fill="#f8d24e" style="fill: var(--color1, #f8d24e)" d="M294.413 11.076c0 1.021-0.832 1.849-1.857 1.849s-1.857-0.828-1.857-1.849c0-1.021 0.832-1.849 1.857-1.849s1.857 0.828 1.857 1.849z"></path>
<path fill="#f8d24e" style="fill: var(--color1, #f8d24e)" d="M298.127 8.764c0 1.021-0.832 1.849-1.857 1.849s-1.857-0.828-1.857-1.849c0-1.021 0.832-1.849 1.857-1.849s1.857 0.828 1.857 1.849z"></path>
<path fill="#f8d24e" style="fill: var(--color1, #f8d24e)" d="M302.771 5.99c0 1.021-0.832 1.849-1.857 1.849s-1.857-0.828-1.857-1.849c0-1.021 0.832-1.849 1.857-1.849s1.857 0.828 1.857 1.849z"></path>
<path fill="#f8d24e" style="fill: var(--color1, #f8d24e)" d="M306.486 3.678c0 1.021-0.832 1.849-1.857 1.849s-1.857-0.828-1.857-1.849c0-1.021 0.832-1.849 1.857-1.849s1.857 0.828 1.857 1.849z"></path>
<path fill="#f8d24e" style="fill: var(--color1, #f8d24e)" d="M293.484 17.087c0 1.021-0.832 1.849-1.857 1.849s-1.857-0.828-1.857-1.849c0-1.021 0.832-1.849 1.857-1.849s1.857 0.828 1.857 1.849z"></path>
<path fill="#f8d24e" style="fill: var(--color1, #f8d24e)" d="M297.198 14.775c0 1.021-0.832 1.85-1.857 1.85s-1.857-0.828-1.857-1.849c0-1.021 0.832-1.849 1.857-1.849s1.857 0.828 1.857 1.849z"></path>
<path fill="#f8d24e" style="fill: var(--color1, #f8d24e)" d="M301.842 12c0 1.021-0.832 1.849-1.857 1.849s-1.857-0.828-1.857-1.849c0-1.021 0.832-1.849 1.857-1.849s1.857 0.828 1.857 1.849z"></path>
<path fill="#f8d24e" style="fill: var(--color1, #f8d24e)" d="M305.557 9.689c0 1.021-0.832 1.85-1.857 1.85s-1.857-0.828-1.857-1.849c0-1.021 0.832-1.849 1.857-1.849s1.857 0.828 1.857 1.849z"></path>
<path fill="#f8d24e" style="fill: var(--color1, #f8d24e)" d="M274.909 8.301c0 1.021-0.728 1.85-1.625 1.85s-1.625-0.828-1.625-1.849c0-1.021 0.728-1.849 1.625-1.849s1.625 0.828 1.625 1.849z"></path>
<path fill="#f8d24e" style="fill: var(--color1, #f8d24e)" d="M278.624 5.99c0 1.021-0.728 1.849-1.625 1.849s-1.625-0.828-1.625-1.849c0-1.021 0.728-1.849 1.625-1.849s1.625 0.828 1.625 1.849z"></path>
<path fill="#f8d24e" style="fill: var(--color1, #f8d24e)" d="M283.268 3.215c0 1.021-0.728 1.85-1.625 1.85s-1.625-0.828-1.625-1.849c0-1.021 0.728-1.849 1.625-1.849s1.625 0.828 1.625 1.849z"></path>
<path fill="#f8d24e" style="fill: var(--color1, #f8d24e)" d="M281.178 10.151c0.898 0 1.625-0.828 1.625-1.849s-0.728-1.849-1.625-1.849c-0.897 0-1.625 0.828-1.625 1.849s0.728 1.849 1.625 1.849z"></path>
<path fill="#f8d24e" style="fill: var(--color1, #f8d24e)" d="M3.715 27.362c0 1.025-0.832 1.855-1.857 1.855s-1.857-0.831-1.857-1.855c0-1.025 0.832-1.855 1.857-1.855s1.857 0.831 1.857 1.855z"></path>
<path fill="#f8d24e" style="fill: var(--color1, #f8d24e)" d="M7.43 25.043c0 1.025-0.832 1.855-1.857 1.855s-1.857-0.831-1.857-1.855c0-1.025 0.832-1.855 1.857-1.855s1.857 0.831 1.857 1.855z"></path>
<path fill="#f8d24e" style="fill: var(--color1, #f8d24e)" d="M12.074 22.261c0 1.025-0.832 1.855-1.857 1.855s-1.857-0.831-1.857-1.855c0-1.025 0.832-1.855 1.857-1.855s1.857 0.831 1.857 1.855z"></path>
<path fill="#f8d24e" style="fill: var(--color1, #f8d24e)" d="M15.789 19.942c0 1.025-0.832 1.855-1.857 1.855s-1.857-0.831-1.857-1.855c0-1.025 0.832-1.855 1.857-1.855s1.857 0.831 1.857 1.855z"></path>
<path fill="#f8d24e" style="fill: var(--color1, #f8d24e)" d="M26.005 28.29c0 1.025-0.832 1.855-1.857 1.855s-1.857-0.831-1.857-1.855c0-1.025 0.832-1.855 1.857-1.855s1.857 0.831 1.857 1.855z"></path>
<path fill="#f8d24e" style="fill: var(--color1, #f8d24e)" d="M29.72 25.971c0 1.025-0.832 1.855-1.857 1.855s-1.857-0.831-1.857-1.855c0-1.025 0.832-1.855 1.857-1.855s1.857 0.831 1.857 1.855z"></path>
<path fill="#f8d24e" style="fill: var(--color1, #f8d24e)" d="M34.363 23.188c0 1.025-0.832 1.855-1.857 1.855s-1.857-0.831-1.857-1.855c0-1.025 0.832-1.855 1.857-1.855s1.857 0.831 1.857 1.855z"></path>
<path fill="#f8d24e" style="fill: var(--color1, #f8d24e)" d="M38.079 20.87c0 1.025-0.832 1.855-1.857 1.855s-1.857-0.831-1.857-1.855c0-1.025 0.832-1.855 1.857-1.855s1.857 0.831 1.857 1.855z"></path>
<path fill="#f8d24e" style="fill: var(--color1, #f8d24e)" d="M34.364 26.899c0 1.025-0.728 1.855-1.626 1.855s-1.625-0.831-1.625-1.855c0-1.025 0.728-1.855 1.625-1.855s1.626 0.831 1.626 1.855z"></path>
<path fill="#f8d24e" style="fill: var(--color1, #f8d24e)" d="M38.079 24.58c0 1.025-0.728 1.855-1.626 1.855s-1.626-0.831-1.626-1.855c0-1.025 0.728-1.855 1.626-1.855s1.626 0.831 1.626 1.855z"></path>
<path fill="#f8d24e" style="fill: var(--color1, #f8d24e)" d="M42.258 22.261c0 1.025-0.728 1.855-1.626 1.855s-1.626-0.831-1.626-1.855c0-1.025 0.728-1.855 1.626-1.855s1.626 0.831 1.626 1.855z"></path>
<path fill="#f8d24e" style="fill: var(--color1, #f8d24e)" d="M46.438 19.942c0 1.025-0.728 1.855-1.626 1.855s-1.626-0.831-1.626-1.855c0-1.025 0.728-1.855 1.626-1.855s1.626 0.831 1.626 1.855z"></path>
<path fill="#f8d24e" style="fill: var(--color1, #f8d24e)" d="M51.081 16.232c0 1.025-0.728 1.855-1.626 1.855s-1.626-0.831-1.626-1.855c0-1.025 0.728-1.855 1.626-1.855s1.626 0.831 1.626 1.855z"></path>
<path fill="#f8d24e" style="fill: var(--color1, #f8d24e)" d="M41.33 18.087c0 1.025-0.728 1.855-1.626 1.855s-1.626-0.831-1.626-1.855c0-1.025 0.728-1.855 1.626-1.855s1.626 0.831 1.626 1.855z"></path>
<path fill="#f8d24e" style="fill: var(--color1, #f8d24e)" d="M17.646 28.29c0 1.025-0.832 1.855-1.857 1.855s-1.857-0.831-1.857-1.855c0-1.025 0.832-1.855 1.857-1.855s1.857 0.831 1.857 1.855z"></path>
<path fill="#f8d24e" style="fill: var(--color1, #f8d24e)" d="M21.361 25.971c0 1.025-0.832 1.855-1.857 1.855s-1.857-0.831-1.857-1.855c0-1.025 0.832-1.855 1.857-1.855s1.857 0.831 1.857 1.855z"></path>
<path fill="#f8d24e" style="fill: var(--color1, #f8d24e)" d="M26.005 23.188c0 1.025-0.832 1.855-1.857 1.855s-1.857-0.831-1.857-1.855c0-1.025 0.832-1.855 1.857-1.855s1.857 0.831 1.857 1.855z"></path>
<path fill="#f8d24e" style="fill: var(--color1, #f8d24e)" d="M29.72 20.87c0 1.025-0.832 1.855-1.857 1.855s-1.857-0.831-1.857-1.855c0-1.025 0.832-1.855 1.857-1.855s1.857 0.831 1.857 1.855z"></path>
<path fill="#f8d24e" style="fill: var(--color1, #f8d24e)" d="M10.216 27.826c0 1.025-0.832 1.855-1.857 1.855s-1.857-0.831-1.857-1.855c0-1.025 0.832-1.855 1.857-1.855s1.857 0.831 1.857 1.855z"></path>
<path fill="#f8d24e" style="fill: var(--color1, #f8d24e)" d="M13.931 25.507c0 1.025-0.832 1.855-1.857 1.855s-1.857-0.831-1.857-1.855c0-1.025 0.832-1.855 1.857-1.855s1.857 0.831 1.857 1.855z"></path>
<path fill="#f8d24e" style="fill: var(--color1, #f8d24e)" d="M18.575 22.725c0 1.025-0.832 1.855-1.857 1.855s-1.857-0.831-1.857-1.855c0-1.025 0.832-1.855 1.857-1.855s1.857 0.831 1.857 1.855z"></path>
<path fill="#f8d24e" style="fill: var(--color1, #f8d24e)" d="M22.29 20.406c0 1.025-0.832 1.855-1.857 1.855s-1.857-0.831-1.857-1.855c0-1.025 0.832-1.855 1.857-1.855s1.857 0.831 1.857 1.855z"></path>
</symbol>
<symbol id="balloons_desk" viewBox="0 0 100 32">
<path fill="#f8d24e" style="fill: var(--color1, #f8d24e)" d="M45.81 25.797c0 0.287-0.219 0.52-0.488 0.52s-0.488-0.233-0.488-0.52c0-0.287 0.219-0.52 0.488-0.52s0.488 0.233 0.488 0.52z"></path>
<path fill="#f8d24e" style="fill: var(--color1, #f8d24e)" d="M46.949 25.104c0 0.287-0.219 0.52-0.488 0.52s-0.488-0.233-0.488-0.52c0-0.287 0.219-0.52 0.488-0.52s0.488 0.233 0.488 0.52z"></path>
<path fill="#f8d24e" style="fill: var(--color1, #f8d24e)" d="M44.915 27.705c0 0.287-0.219 0.52-0.488 0.52s-0.488-0.233-0.488-0.52c0-0.287 0.219-0.52 0.488-0.52s0.488 0.233 0.488 0.52z"></path>
<path fill="#f8d24e" style="fill: var(--color1, #f8d24e)" d="M45.972 27.011c0 0.287-0.219 0.52-0.488 0.52s-0.488-0.233-0.488-0.52c0-0.287 0.219-0.52 0.488-0.52s0.488 0.233 0.488 0.52z"></path>
<path fill="#f8d24e" style="fill: var(--color1, #f8d24e)" d="M47.193 26.231c0 0.287-0.219 0.52-0.488 0.52s-0.488-0.233-0.488-0.52c0-0.287 0.219-0.52 0.488-0.52s0.488 0.233 0.488 0.52z"></path>
<path fill="#f8d24e" style="fill: var(--color1, #f8d24e)" d="M48.332 25.537c0 0.287-0.219 0.52-0.488 0.52s-0.488-0.233-0.488-0.52c0-0.287 0.219-0.52 0.488-0.52s0.488 0.233 0.488 0.52z"></path>
<path fill="#f8d24e" style="fill: var(--color1, #f8d24e)" d="M46.705 27.792c0 0.287-0.219 0.52-0.488 0.52s-0.488-0.233-0.488-0.52c0-0.287 0.219-0.52 0.488-0.52s0.488 0.233 0.488 0.52z"></path>
<path fill="#f8d24e" style="fill: var(--color1, #f8d24e)" d="M47.762 27.098c0 0.287-0.219 0.52-0.488 0.52s-0.488-0.233-0.488-0.52c0-0.287 0.219-0.52 0.488-0.52s0.488 0.233 0.488 0.52z"></path>
<path fill="#f8d24e" style="fill: var(--color1, #f8d24e)" d="M48.983 26.318c0 0.287-0.219 0.52-0.488 0.52s-0.488-0.233-0.488-0.52c0-0.287 0.219-0.52 0.488-0.52s0.488 0.233 0.488 0.52z"></path>
<path fill="#f8d24e" style="fill: var(--color1, #f8d24e)" d="M50.122 25.624c0 0.287-0.219 0.52-0.488 0.52s-0.488-0.233-0.488-0.52c0-0.287 0.219-0.52 0.488-0.52s0.488 0.233 0.488 0.52z"></path>
<path fill="#f8d24e" style="fill: var(--color1, #f8d24e)" d="M48.82 27.792c0 0.287-0.219 0.52-0.488 0.52s-0.488-0.233-0.488-0.52c0-0.287 0.219-0.52 0.488-0.52s0.488 0.233 0.488 0.52z"></path>
<path fill="#f8d24e" style="fill: var(--color1, #f8d24e)" d="M49.878 27.098c0 0.287-0.219 0.52-0.488 0.52s-0.488-0.233-0.488-0.52c0-0.287 0.219-0.52 0.488-0.52s0.488 0.233 0.488 0.52z"></path>
<path fill="#f8d24e" style="fill: var(--color1, #f8d24e)" d="M51.098 26.318c0 0.287-0.219 0.52-0.488 0.52s-0.488-0.233-0.488-0.52c0-0.287 0.219-0.52 0.488-0.52s0.488 0.233 0.488 0.52z"></path>
<path fill="#f8d24e" style="fill: var(--color1, #f8d24e)" d="M52.238 25.624c0 0.287-0.219 0.52-0.488 0.52s-0.488-0.233-0.488-0.52c0-0.287 0.219-0.52 0.488-0.52s0.488 0.233 0.488 0.52z"></path>
<path fill="#f8d24e" style="fill: var(--color1, #f8d24e)" d="M50.61 27.705c0 0.287-0.219 0.52-0.488 0.52s-0.488-0.233-0.488-0.52c0-0.287 0.219-0.52 0.488-0.52s0.488 0.233 0.488 0.52z"></path>
<path fill="#f8d24e" style="fill: var(--color1, #f8d24e)" d="M51.668 27.011c0 0.287-0.219 0.52-0.488 0.52s-0.488-0.233-0.488-0.52c0-0.287 0.219-0.52 0.488-0.52s0.488 0.233 0.488 0.52z"></path>
<path fill="#f8d24e" style="fill: var(--color1, #f8d24e)" d="M52.889 26.231c0 0.287-0.219 0.52-0.488 0.52s-0.488-0.233-0.488-0.52c0-0.287 0.219-0.52 0.488-0.52s0.488 0.233 0.488 0.52z"></path>
<path fill="#f8d24e" style="fill: var(--color1, #f8d24e)" d="M54.028 25.537c0 0.287-0.219 0.52-0.488 0.52s-0.488-0.233-0.488-0.52c0-0.287 0.219-0.52 0.488-0.52s0.488 0.233 0.488 0.52z"></path>
<path fill="#f8d24e" style="fill: var(--color1, #f8d24e)" d="M52.644 27.618c0 0.287-0.219 0.52-0.488 0.52s-0.488-0.233-0.488-0.52c0-0.287 0.219-0.52 0.488-0.52s0.488 0.233 0.488 0.52z"></path>
<path fill="#f8d24e" style="fill: var(--color1, #f8d24e)" d="M53.702 26.925c0 0.287-0.219 0.52-0.488 0.52s-0.488-0.233-0.488-0.52c0-0.287 0.219-0.52 0.488-0.52s0.488 0.233 0.488 0.52z"></path>
<path fill="#f8d24e" style="fill: var(--color1, #f8d24e)" d="M54.923 26.144c0 0.287-0.219 0.52-0.488 0.52s-0.488-0.233-0.488-0.52c0-0.287 0.219-0.52 0.488-0.52s0.488 0.233 0.488 0.52z"></path>
<path fill="#f8d24e" style="fill: var(--color1, #f8d24e)" d="M56.062 25.45c0 0.287-0.219 0.52-0.488 0.52s-0.488-0.233-0.488-0.52c0-0.287 0.219-0.52 0.488-0.52s0.488 0.233 0.488 0.52z"></path>
<path fill="#f8d24e" style="fill: var(--color1, #f8d24e)" d="M54.516 25.364c0 0.287-0.219 0.52-0.488 0.52s-0.488-0.233-0.488-0.52c0-0.287 0.219-0.52 0.488-0.52s0.488 0.233 0.488 0.52z"></path>
<path fill="#f8d24e" style="fill: var(--color1, #f8d24e)" d="M55.574 24.67c0 0.287-0.219 0.52-0.488 0.52s-0.488-0.233-0.488-0.52c0-0.287 0.219-0.52 0.488-0.52s0.488 0.233 0.488 0.52z"></path>
<path fill="#f8d24e" style="fill: var(--color1, #f8d24e)" d="M56.794 23.889c0 0.287-0.219 0.52-0.488 0.52s-0.488-0.233-0.488-0.52c0-0.287 0.219-0.52 0.488-0.52s0.488 0.233 0.488 0.52z"></path>
<path fill="#f8d24e" style="fill: var(--color1, #f8d24e)" d="M57.933 23.196c0 0.287-0.219 0.52-0.488 0.52s-0.488-0.233-0.488-0.52c0-0.287 0.219-0.52 0.488-0.52s0.488 0.233 0.488 0.52z"></path>
</symbol>
<symbol id="balloons_mob" viewBox="0 0 205 32">
<path fill="#f8d24e" style="fill: var(--color1, #f8d24e)" d="M156.54 29.617c0 0.982-0.745 1.779-1.664 1.779s-1.664-0.796-1.664-1.779c0-0.982 0.745-1.779 1.664-1.779s1.664 0.796 1.664 1.779z"></path>
<path fill="#f8d24e" style="fill: var(--color1, #f8d24e)" d="M160.146 27.245c0 0.982-0.745 1.779-1.664 1.779s-1.664-0.796-1.664-1.779c0-0.982 0.745-1.779 1.664-1.779s1.664 0.796 1.664 1.779z"></path>
<path fill="#f8d24e" style="fill: var(--color1, #f8d24e)" d="M164.305 24.578c0 0.982-0.745 1.779-1.664 1.779s-1.664-0.796-1.664-1.779c0-0.982 0.745-1.779 1.664-1.779s1.664 0.796 1.664 1.779z"></path>
<path fill="#f8d24e" style="fill: var(--color1, #f8d24e)" d="M168.189 22.207c0 0.982-0.745 1.779-1.664 1.779s-1.664-0.796-1.664-1.779c0-0.982 0.745-1.779 1.664-1.779s1.664 0.796 1.664 1.779z"></path>
<path fill="#f8d24e" style="fill: var(--color1, #f8d24e)" d="M165.969 28.431c0 0.982-0.745 1.779-1.664 1.779s-1.664-0.796-1.664-1.779c0-0.982 0.745-1.779 1.664-1.779s1.664 0.796 1.664 1.779z"></path>
<path fill="#f8d24e" style="fill: var(--color1, #f8d24e)" d="M169.575 26.060c0 0.982-0.745 1.779-1.664 1.779s-1.664-0.796-1.664-1.779c0-0.982 0.745-1.779 1.664-1.779s1.664 0.796 1.664 1.779z"></path>
<path fill="#f8d24e" style="fill: var(--color1, #f8d24e)" d="M173.734 23.392c0 0.982-0.745 1.779-1.664 1.779s-1.664-0.796-1.664-1.779c0-0.982 0.745-1.779 1.664-1.779s1.664 0.796 1.664 1.779z"></path>
<path fill="#f8d24e" style="fill: var(--color1, #f8d24e)" d="M177.619 21.021c0 0.982-0.745 1.779-1.664 1.779s-1.664-0.796-1.664-1.779c0-0.982 0.745-1.779 1.664-1.779s1.664 0.796 1.664 1.779z"></path>
<path fill="#f8d24e" style="fill: var(--color1, #f8d24e)" d="M174.013 27.542c0 0.982-0.745 1.779-1.664 1.779s-1.664-0.796-1.664-1.779c0-0.982 0.745-1.779 1.664-1.779s1.664 0.796 1.664 1.779z"></path>
<path fill="#f8d24e" style="fill: var(--color1, #f8d24e)" d="M177.619 25.171c0 0.982-0.745 1.779-1.664 1.779s-1.664-0.796-1.664-1.779c0-0.982 0.745-1.779 1.664-1.779s1.664 0.796 1.664 1.779z"></path>
<path fill="#f8d24e" style="fill: var(--color1, #f8d24e)" d="M181.779 22.503c0 0.982-0.745 1.779-1.664 1.779s-1.664-0.796-1.664-1.779c0-0.982 0.745-1.779 1.664-1.779s1.664 0.796 1.664 1.779z"></path>
<path fill="#f8d24e" style="fill: var(--color1, #f8d24e)" d="M185.661 20.132c0 0.982-0.745 1.779-1.664 1.779s-1.664-0.796-1.664-1.779c0-0.982 0.745-1.779 1.664-1.779s1.664 0.796 1.664 1.779z"></path>
<path fill="#f8d24e" style="fill: var(--color1, #f8d24e)" d="M181.778 26.356c0 0.982-0.745 1.779-1.664 1.779s-1.664-0.796-1.664-1.779c0-0.982 0.745-1.779 1.664-1.779s1.664 0.796 1.664 1.779z"></path>
<path fill="#f8d24e" style="fill: var(--color1, #f8d24e)" d="M185.383 23.985c0 0.982-0.745 1.779-1.664 1.779s-1.664-0.796-1.664-1.779c0-0.982 0.745-1.779 1.664-1.779s1.664 0.796 1.664 1.779z"></path>
<path fill="#f8d24e" style="fill: var(--color1, #f8d24e)" d="M189.543 21.318c0 0.982-0.745 1.779-1.664 1.779s-1.664-0.796-1.664-1.779c0-0.982 0.745-1.779 1.664-1.779s1.664 0.796 1.664 1.779z"></path>
<path fill="#f8d24e" style="fill: var(--color1, #f8d24e)" d="M193.427 18.947c0 0.982-0.745 1.779-1.664 1.779s-1.664-0.796-1.664-1.779c0-0.982 0.745-1.779 1.664-1.779s1.664 0.796 1.664 1.779z"></path>
<path fill="#f8d24e" style="fill: var(--color1, #f8d24e)" d="M184.276 29.617c0 0.982-0.745 1.779-1.664 1.779s-1.664-0.796-1.664-1.779c0-0.982 0.745-1.779 1.664-1.779s1.664 0.796 1.664 1.779z"></path>
<path fill="#f8d24e" style="fill: var(--color1, #f8d24e)" d="M187.882 27.245c0 0.982-0.745 1.779-1.664 1.779s-1.664-0.796-1.664-1.779c0-0.982 0.745-1.779 1.664-1.779s1.664 0.796 1.664 1.779z"></path>
<path fill="#f8d24e" style="fill: var(--color1, #f8d24e)" d="M192.874 29.913c0 0.982-0.745 1.779-1.664 1.779s-1.664-0.796-1.664-1.779c0-0.982 0.745-1.779 1.664-1.779s1.664 0.796 1.664 1.779z"></path>
<path fill="#f8d24e" style="fill: var(--color1, #f8d24e)" d="M192.042 24.578c0 0.982-0.745 1.779-1.664 1.779s-1.664-0.796-1.664-1.779c0-0.982 0.745-1.779 1.664-1.779s1.664 0.796 1.664 1.779z"></path>
<path fill="#f8d24e" style="fill: var(--color1, #f8d24e)" d="M197.034 27.245c0 0.982-0.745 1.779-1.664 1.779s-1.664-0.796-1.664-1.779c0-0.982 0.745-1.779 1.664-1.779s1.664 0.796 1.664 1.779z"></path>
<path fill="#f8d24e" style="fill: var(--color1, #f8d24e)" d="M200.918 29.913c0 0.982-0.745 1.779-1.664 1.779s-1.664-0.796-1.664-1.779c0-0.982 0.745-1.779 1.664-1.779s1.664 0.796 1.664 1.779z"></path>
<path fill="#f8d24e" style="fill: var(--color1, #f8d24e)" d="M195.925 22.207c0 0.982-0.745 1.779-1.664 1.779s-1.664-0.796-1.664-1.779c0-0.982 0.745-1.779 1.664-1.779s1.664 0.796 1.664 1.779z"></path>
<path fill="#f8d24e" style="fill: var(--color1, #f8d24e)" d="M200.918 24.874c0 0.982-0.745 1.779-1.664 1.779s-1.664-0.796-1.664-1.779c0-0.982 0.745-1.779 1.664-1.779s1.664 0.796 1.664 1.779z"></path>
<path fill="#f8d24e" style="fill: var(--color1, #f8d24e)" d="M204.801 27.542c0 0.982-0.745 1.779-1.664 1.779s-1.664-0.796-1.664-1.779c0-0.982 0.745-1.779 1.664-1.779s1.664 0.796 1.664 1.779z"></path>
<path fill="#f8d24e" style="fill: var(--color1, #f8d24e)" d="M139.622 10.055c0 0.982-0.745 1.779-1.664 1.779s-1.664-0.796-1.664-1.779c0-0.982 0.745-1.779 1.664-1.779s1.664 0.796 1.664 1.779z"></path>
<path fill="#f8d24e" style="fill: var(--color1, #f8d24e)" d="M143.227 7.684c0 0.982-0.745 1.779-1.664 1.779s-1.664-0.796-1.664-1.779c0-0.982 0.745-1.779 1.664-1.779s1.664 0.796 1.664 1.779z"></path>
<path fill="#f8d24e" style="fill: var(--color1, #f8d24e)" d="M147.388 5.016c0 0.982-0.745 1.779-1.664 1.779s-1.664-0.796-1.664-1.779c0-0.982 0.745-1.779 1.664-1.779s1.664 0.796 1.664 1.779z"></path>
<path fill="#f8d24e" style="fill: var(--color1, #f8d24e)" d="M151.27 2.645c0 0.982-0.745 1.779-1.664 1.779s-1.664-0.796-1.664-1.779c0-0.982 0.745-1.779 1.664-1.779s1.664 0.796 1.664 1.779z"></path>
<path fill="#f8d24e" style="fill: var(--color1, #f8d24e)" d="M132.687 9.758c0 0.982-0.745 1.779-1.664 1.779s-1.664-0.796-1.664-1.779c0-0.982 0.745-1.779 1.664-1.779s1.664 0.796 1.664 1.779z"></path>
<path fill="#f8d24e" style="fill: var(--color1, #f8d24e)" d="M136.292 7.387c0 0.982-0.745 1.779-1.664 1.779s-1.664-0.796-1.664-1.779c0-0.982 0.745-1.779 1.664-1.779s1.664 0.796 1.664 1.779z"></path>
<path fill="#f8d24e" style="fill: var(--color1, #f8d24e)" d="M140.452 4.72c0 0.982-0.745 1.779-1.664 1.779s-1.664-0.796-1.664-1.779c0-0.982 0.745-1.779 1.664-1.779s1.664 0.796 1.664 1.779z"></path>
<path fill="#f8d24e" style="fill: var(--color1, #f8d24e)" d="M144.335 2.349c0 0.982-0.745 1.779-1.664 1.779s-1.664-0.796-1.664-1.779c0-0.982 0.745-1.779 1.664-1.779s1.664 0.796 1.664 1.779z"></path>
<path fill="#f8d24e" style="fill: var(--color1, #f8d24e)" d="M148.219 29.617c0 0.982-0.745 1.779-1.664 1.779s-1.664-0.796-1.664-1.779c0-0.982 0.745-1.779 1.664-1.779s1.664 0.796 1.664 1.779z"></path>
<path fill="#f8d24e" style="fill: var(--color1, #f8d24e)" d="M151.824 27.245c0 0.982-0.745 1.779-1.664 1.779s-1.664-0.796-1.664-1.779c0-0.982 0.745-1.779 1.664-1.779s1.664 0.796 1.664 1.779z"></path>
<path fill="#f8d24e" style="fill: var(--color1, #f8d24e)" d="M155.984 24.578c0 0.982-0.745 1.779-1.664 1.779s-1.664-0.796-1.664-1.779c0-0.982 0.745-1.779 1.664-1.779s1.664 0.796 1.664 1.779z"></path>
<path fill="#f8d24e" style="fill: var(--color1, #f8d24e)" d="M159.868 22.207c0 0.982-0.745 1.779-1.664 1.779s-1.664-0.796-1.664-1.779c0-0.982 0.745-1.779 1.664-1.779s1.664 0.796 1.664 1.779z"></path>
<path fill="#f8d24e" style="fill: var(--color1, #f8d24e)" d="M143.781 27.839c0 0.982-0.745 1.779-1.664 1.779s-1.664-0.796-1.664-1.779c0-0.982 0.745-1.779 1.664-1.779s1.664 0.796 1.664 1.779z"></path>
<path fill="#f8d24e" style="fill: var(--color1, #f8d24e)" d="M147.387 25.468c0 0.982-0.745 1.779-1.664 1.779s-1.664-0.796-1.664-1.779c0-0.982 0.745-1.779 1.664-1.779s1.664 0.796 1.664 1.779z"></path>
<path fill="#f8d24e" style="fill: var(--color1, #f8d24e)" d="M151.547 22.799c0 0.982-0.745 1.779-1.664 1.779s-1.664-0.796-1.664-1.779c0-0.982 0.745-1.779 1.664-1.779s1.664 0.796 1.664 1.779z"></path>
<path fill="#f8d24e" style="fill: var(--color1, #f8d24e)" d="M155.43 20.429c0 0.982-0.745 1.779-1.664 1.779s-1.664-0.796-1.664-1.779c0-0.982 0.745-1.779 1.664-1.779s1.664 0.796 1.664 1.779z"></path>
<path fill="#f8d24e" style="fill: var(--color1, #f8d24e)" d="M145.446 21.614c0 0.982-0.745 1.779-1.664 1.779s-1.664-0.796-1.664-1.779c0-0.982 0.745-1.779 1.664-1.779s1.664 0.796 1.664 1.779z"></path>
<path fill="#f8d24e" style="fill: var(--color1, #f8d24e)" d="M149.051 19.243c0 0.982-0.745 1.779-1.664 1.779s-1.664-0.796-1.664-1.779c0-0.982 0.745-1.779 1.664-1.779s1.664 0.796 1.664 1.779z"></path>
<path fill="#f8d24e" style="fill: var(--color1, #f8d24e)" d="M153.212 16.575c0 0.982-0.745 1.779-1.664 1.779s-1.664-0.796-1.664-1.779c0-0.982 0.745-1.779 1.664-1.779s1.664 0.796 1.664 1.779z"></path>
<path fill="#f8d24e" style="fill: var(--color1, #f8d24e)" d="M157.094 14.204c0 0.982-0.745 1.779-1.664 1.779s-1.664-0.796-1.664-1.779c0-0.982 0.745-1.779 1.664-1.779s1.664 0.796 1.664 1.779z"></path>
<path fill="#f8d24e" style="fill: var(--color1, #f8d24e)" d="M145.446 11.24c0 0.982-0.745 1.779-1.664 1.779s-1.664-0.796-1.664-1.779c0-0.982 0.745-1.779 1.664-1.779s1.664 0.796 1.664 1.779z"></path>
<path fill="#f8d24e" style="fill: var(--color1, #f8d24e)" d="M149.051 8.869c0 0.982-0.745 1.779-1.664 1.779s-1.664-0.796-1.664-1.779c0-0.982 0.745-1.779 1.664-1.779s1.664 0.796 1.664 1.779z"></path>
<path fill="#f8d24e" style="fill: var(--color1, #f8d24e)" d="M153.212 6.202c0 0.982-0.745 1.779-1.664 1.779s-1.664-0.796-1.664-1.779c0-0.982 0.745-1.779 1.664-1.779s1.664 0.796 1.664 1.779z"></path>
<path fill="#f8d24e" style="fill: var(--color1, #f8d24e)" d="M157.094 3.83c0 0.982-0.745 1.779-1.664 1.779s-1.664-0.796-1.664-1.779c0-0.982 0.745-1.779 1.664-1.779s1.664 0.796 1.664 1.779z"></path>
<path fill="#f8d24e" style="fill: var(--color1, #f8d24e)" d="M144.613 16.872c0 0.982-0.745 1.779-1.664 1.779s-1.664-0.796-1.664-1.779c0-0.982 0.745-1.779 1.664-1.779s1.664 0.796 1.664 1.779z"></path>
<path fill="#f8d24e" style="fill: var(--color1, #f8d24e)" d="M148.22 14.5c0 0.982-0.745 1.779-1.664 1.779s-1.664-0.796-1.664-1.779c0-0.982 0.745-1.779 1.664-1.779s1.664 0.796 1.664 1.779z"></path>
<path fill="#f8d24e" style="fill: var(--color1, #f8d24e)" d="M152.379 11.834c0 0.982-0.745 1.779-1.664 1.779s-1.664-0.796-1.664-1.779c0-0.982 0.745-1.779 1.664-1.779s1.664 0.796 1.664 1.779z"></path>
<path fill="#f8d24e" style="fill: var(--color1, #f8d24e)" d="M156.262 9.462c0 0.982-0.745 1.779-1.664 1.779s-1.664-0.796-1.664-1.779c0-0.982 0.745-1.779 1.664-1.779s1.664 0.796 1.664 1.779z"></path>
<path fill="#f8d24e" style="fill: var(--color1, #f8d24e)" d="M127.14 8.276c0 0.982-0.745 1.779-1.664 1.779s-1.664-0.796-1.664-1.779c0-0.982 0.745-1.779 1.664-1.779s1.664 0.796 1.664 1.779z"></path>
<path fill="#f8d24e" style="fill: var(--color1, #f8d24e)" d="M130.746 5.905c0 0.982-0.745 1.779-1.664 1.779s-1.664-0.796-1.664-1.779c0-0.982 0.745-1.779 1.664-1.779s1.664 0.796 1.664 1.779z"></path>
<path fill="#f8d24e" style="fill: var(--color1, #f8d24e)" d="M134.906 3.238c0 0.982-0.745 1.779-1.664 1.779s-1.664-0.796-1.664-1.779c0-0.982 0.745-1.779 1.664-1.779s1.664 0.796 1.664 1.779z"></path>
<path fill="#f8d24e" style="fill: var(--color1, #f8d24e)" d="M132.964 10.054c0.919 0 1.665-0.796 1.665-1.778s-0.746-1.779-1.665-1.779-1.664 0.796-1.664 1.779c0 0.982 0.745 1.778 1.664 1.778z"></path>
<path fill="#f8d24e" style="fill: var(--color1, #f8d24e)" d="M56.441 21.475c0.141 0.985-0.491 1.907-1.413 2.058s-1.784-0.525-1.925-1.511c-0.141-0.985 0.491-1.907 1.413-2.058s1.784 0.525 1.925 1.511z"></path>
<path fill="#f8d24e" style="fill: var(--color1, #f8d24e)" d="M59.717 18.504c0.141 0.985-0.491 1.907-1.413 2.058s-1.784-0.525-1.925-1.511c-0.141-0.985 0.491-1.907 1.413-2.058s1.784 0.525 1.925 1.511z"></path>
<path fill="#f8d24e" style="fill: var(--color1, #f8d24e)" d="M63.506 15.144c0.141 0.985-0.491 1.906-1.413 2.058s-1.784-0.525-1.925-1.511c-0.141-0.985 0.491-1.906 1.413-2.058s1.784 0.525 1.925 1.511z"></path>
<path fill="#f8d24e" style="fill: var(--color1, #f8d24e)" d="M67.060 12.128c0.141 0.985-0.491 1.906-1.413 2.058s-1.784-0.525-1.925-1.511c-0.141-0.985 0.491-1.906 1.413-2.058s1.784 0.525 1.925 1.511z"></path>
<path fill="#f8d24e" style="fill: var(--color1, #f8d24e)" d="M3.482 21.473c0 0.997-0.779 1.805-1.741 1.805s-1.741-0.808-1.741-1.805c0-0.997 0.779-1.805 1.741-1.805s1.741 0.808 1.741 1.805z"></path>
<path fill="#f8d24e" style="fill: var(--color1, #f8d24e)" d="M7.252 19.067c0 0.997-0.779 1.805-1.741 1.805s-1.741-0.808-1.741-1.805c0-0.997 0.779-1.805 1.741-1.805s1.741 0.808 1.741 1.805z"></path>
<path fill="#f8d24e" style="fill: var(--color1, #f8d24e)" d="M11.605 16.36c0 0.997-0.779 1.805-1.741 1.805s-1.741-0.808-1.741-1.805c0-0.997 0.779-1.805 1.741-1.805s1.741 0.808 1.741 1.805z"></path>
<path fill="#f8d24e" style="fill: var(--color1, #f8d24e)" d="M15.666 13.953c0 0.997-0.779 1.805-1.741 1.805s-1.741-0.808-1.741-1.805c0-0.997 0.779-1.805 1.741-1.805s1.741 0.808 1.741 1.805z"></path>
<path fill="#f8d24e" style="fill: var(--color1, #f8d24e)" d="M5.222 25.984c0 0.997-0.779 1.805-1.741 1.805s-1.741-0.808-1.741-1.805c0-0.997 0.779-1.805 1.741-1.805s1.741 0.808 1.741 1.805z"></path>
<path fill="#f8d24e" style="fill: var(--color1, #f8d24e)" d="M8.994 23.578c0 0.997-0.779 1.805-1.741 1.805s-1.741-0.808-1.741-1.805c0-0.997 0.779-1.805 1.741-1.805s1.741 0.808 1.741 1.805z"></path>
<path fill="#f8d24e" style="fill: var(--color1, #f8d24e)" d="M13.347 20.871c0 0.997-0.779 1.805-1.741 1.805s-1.741-0.808-1.741-1.805c0-0.997 0.779-1.805 1.741-1.805s1.741 0.808 1.741 1.805z"></path>
<path fill="#f8d24e" style="fill: var(--color1, #f8d24e)" d="M17.407 18.465c0 0.997-0.779 1.805-1.741 1.805s-1.741-0.808-1.741-1.805c0-0.997 0.779-1.805 1.741-1.805s1.741 0.808 1.741 1.805z"></path>
<path fill="#f8d24e" style="fill: var(--color1, #f8d24e)" d="M9.573 28.39c0 0.997-0.779 1.805-1.741 1.805s-1.741-0.808-1.741-1.805c0-0.997 0.779-1.805 1.741-1.805s1.741 0.808 1.741 1.805z"></path>
<path fill="#f8d24e" style="fill: var(--color1, #f8d24e)" d="M13.345 25.984c0 0.997-0.779 1.805-1.741 1.805s-1.741-0.808-1.741-1.805c0-0.997 0.779-1.805 1.741-1.805s1.741 0.808 1.741 1.805z"></path>
<path fill="#f8d24e" style="fill: var(--color1, #f8d24e)" d="M17.697 23.277c0 0.997-0.779 1.805-1.741 1.805s-1.741-0.808-1.741-1.805c0-0.997 0.779-1.805 1.741-1.805s1.741 0.808 1.741 1.805z"></path>
<path fill="#f8d24e" style="fill: var(--color1, #f8d24e)" d="M21.757 20.871c0 0.997-0.779 1.805-1.741 1.805s-1.741-0.808-1.741-1.805c0-0.997 0.779-1.805 1.741-1.805s1.741 0.808 1.741 1.805z"></path>
<path fill="#f8d24e" style="fill: var(--color1, #f8d24e)" d="M14.504 29.895c0 0.997-0.779 1.805-1.741 1.805s-1.741-0.808-1.741-1.805c0-0.997 0.779-1.805 1.741-1.805s1.741 0.808 1.741 1.805z"></path>
<path fill="#f8d24e" style="fill: var(--color1, #f8d24e)" d="M18.276 27.488c0 0.997-0.779 1.805-1.741 1.805s-1.741-0.808-1.741-1.805c0-0.997 0.779-1.805 1.741-1.805s1.741 0.808 1.741 1.805z"></path>
<path fill="#f8d24e" style="fill: var(--color1, #f8d24e)" d="M22.629 24.781c0 0.997-0.779 1.805-1.741 1.805s-1.741-0.808-1.741-1.805c0-0.997 0.779-1.805 1.741-1.805s1.741 0.808 1.741 1.805z"></path>
<path fill="#f8d24e" style="fill: var(--color1, #f8d24e)" d="M26.689 22.375c0 0.997-0.779 1.805-1.741 1.805s-1.741-0.808-1.741-1.805c0-0.997 0.779-1.805 1.741-1.805s1.741 0.808 1.741 1.805z"></path>
<path fill="#f8d24e" style="fill: var(--color1, #f8d24e)" d="M20.888 30.196c0 0.997-0.779 1.805-1.741 1.805s-1.741-0.808-1.741-1.805c0-0.997 0.779-1.805 1.741-1.805s1.741 0.808 1.741 1.805z"></path>
<path fill="#f8d24e" style="fill: var(--color1, #f8d24e)" d="M24.659 27.789c0 0.997-0.779 1.805-1.741 1.805s-1.741-0.808-1.741-1.805c0-0.997 0.779-1.805 1.741-1.805s1.741 0.808 1.741 1.805z"></path>
<path fill="#f8d24e" style="fill: var(--color1, #f8d24e)" d="M29.011 25.082c0 0.997-0.779 1.805-1.741 1.805s-1.741-0.808-1.741-1.805c0-0.997 0.779-1.805 1.741-1.805s1.741 0.808 1.741 1.805z"></path>
<path fill="#f8d24e" style="fill: var(--color1, #f8d24e)" d="M33.072 22.676c0 0.997-0.779 1.805-1.741 1.805s-1.741-0.808-1.741-1.805c0-0.997 0.779-1.805 1.741-1.805s1.741 0.808 1.741 1.805z"></path>
<path fill="#f8d24e" style="fill: var(--color1, #f8d24e)" d="M28.431 30.195c0 0.997-0.779 1.805-1.741 1.805s-1.741-0.808-1.741-1.805c0-0.997 0.779-1.805 1.741-1.805s1.741 0.808 1.741 1.805z"></path>
<path fill="#f8d24e" style="fill: var(--color1, #f8d24e)" d="M32.202 27.789c0 0.997-0.779 1.805-1.741 1.805s-1.741-0.808-1.741-1.805c0-0.997 0.779-1.805 1.741-1.805s1.741 0.808 1.741 1.805z"></path>
<path fill="#f8d24e" style="fill: var(--color1, #f8d24e)" d="M36.554 25.082c0 0.997-0.779 1.805-1.741 1.805s-1.741-0.808-1.741-1.805c0-0.997 0.779-1.805 1.741-1.805s1.741 0.808 1.741 1.805z"></path>
<path fill="#f8d24e" style="fill: var(--color1, #f8d24e)" d="M40.616 22.676c0 0.997-0.779 1.805-1.741 1.805s-1.741-0.808-1.741-1.805c0-0.997 0.779-1.805 1.741-1.805s1.741 0.808 1.741 1.805z"></path>
<path fill="#f8d24e" style="fill: var(--color1, #f8d24e)" d="M34.812 29.894c0 0.997-0.779 1.805-1.741 1.805s-1.741-0.808-1.741-1.805c0-0.997 0.779-1.805 1.741-1.805s1.741 0.808 1.741 1.805z"></path>
<path fill="#f8d24e" style="fill: var(--color1, #f8d24e)" d="M38.583 27.488c0 0.997-0.779 1.805-1.741 1.805s-1.741-0.808-1.741-1.805c0-0.997 0.779-1.805 1.741-1.805s1.741 0.808 1.741 1.805z"></path>
<path fill="#f8d24e" style="fill: var(--color1, #f8d24e)" d="M42.936 24.781c0 0.997-0.779 1.805-1.741 1.805s-1.741-0.808-1.741-1.805c0-0.997 0.779-1.805 1.741-1.805s1.741 0.808 1.741 1.805z"></path>
<path fill="#f8d24e" style="fill: var(--color1, #f8d24e)" d="M46.996 22.375c0 0.997-0.779 1.805-1.741 1.805s-1.741-0.808-1.741-1.805c0-0.997 0.779-1.805 1.741-1.805s1.741 0.808 1.741 1.805z"></path>
<path fill="#f8d24e" style="fill: var(--color1, #f8d24e)" d="M42.065 29.594c0 0.997-0.779 1.805-1.741 1.805s-1.741-0.808-1.741-1.805c0-0.997 0.779-1.805 1.741-1.805s1.741 0.808 1.741 1.805z"></path>
<path fill="#f8d24e" style="fill: var(--color1, #f8d24e)" d="M45.836 27.187c0 0.997-0.779 1.805-1.741 1.805s-1.741-0.808-1.741-1.805c0-0.997 0.779-1.805 1.741-1.805s1.741 0.808 1.741 1.805z"></path>
<path fill="#f8d24e" style="fill: var(--color1, #f8d24e)" d="M50.188 24.481c0 0.997-0.779 1.805-1.741 1.805s-1.741-0.808-1.741-1.805c0-0.997 0.779-1.805 1.741-1.805s1.741 0.808 1.741 1.805z"></path>
<path fill="#f8d24e" style="fill: var(--color1, #f8d24e)" d="M54.249 22.074c0 0.997-0.779 1.805-1.741 1.805s-1.741-0.808-1.741-1.805c0-0.997 0.779-1.805 1.741-1.805s1.741 0.808 1.741 1.805z"></path>
<path fill="#f8d24e" style="fill: var(--color1, #f8d24e)" d="M48.737 21.773c0 0.997-0.779 1.805-1.741 1.805s-1.741-0.808-1.741-1.805c0-0.997 0.779-1.805 1.741-1.805s1.741 0.808 1.741 1.805z"></path>
<path fill="#f8d24e" style="fill: var(--color1, #f8d24e)" d="M52.508 19.367c0 0.997-0.779 1.805-1.741 1.805s-1.741-0.808-1.741-1.805c0-0.997 0.779-1.805 1.741-1.805s1.741 0.808 1.741 1.805z"></path>
<path fill="#f8d24e" style="fill: var(--color1, #f8d24e)" d="M56.86 16.66c0 0.997-0.779 1.805-1.741 1.805s-1.741-0.808-1.741-1.805c0-0.997 0.779-1.805 1.741-1.805s1.741 0.808 1.741 1.805z"></path>
<path fill="#f8d24e" style="fill: var(--color1, #f8d24e)" d="M60.922 14.254c0 0.997-0.779 1.805-1.741 1.805s-1.741-0.808-1.741-1.805c0-0.997 0.779-1.805 1.741-1.805s1.741 0.808 1.741 1.805z"></path>
</symbol>
</defs>
</svg>
